<?xml version="1.0" encoding="utf-8"?>
<!-- Generator: Adobe Illustrator 23.1.0, SVG Export Plug-In . SVG Version: 6.00 Build 0)  -->
<svg version="1.1" id="图层_1" xmlns="http://www.w3.org/2000/svg" xmlns:xlink="http://www.w3.org/1999/xlink" x="0px" y="0px"
	 viewBox="0 0 200 200" style="enable-background:new 0 0 200 200;" xml:space="preserve">
<style type="text/css">
	.st0{fill:url(#SVGID_1_);}
	.st1{fill:#000019;}
</style>
<linearGradient id="SVGID_1_" gradientUnits="userSpaceOnUse" x1="112.0323" y1="196.7132" x2="112.0323" y2="27.4476">
	<stop  offset="0" style="stop-color:#FFFFFF"/>
	<stop  offset="0.5422" style="stop-color:#FBC289"/>
	<stop  offset="1" style="stop-color:#F8902A"/>
</linearGradient>
<polygon class="st0" points="175.3,196.7 48.8,196.7 98.8,112.7 48.8,27.4 175.3,27.4 125.3,111.8 "/>
<polygon class="st1" points="147.5,189.7 135.5,189.7 135.5,150.2 27,65.4 27,1.7 39,1.7 39,59.6 147.5,144.3 "/>
<polygon class="st1" points="39,189.7 27,189.7 27,144.3 135.5,59.6 135.5,1.7 147.5,1.7 147.5,65.4 39,150.2 "/>
<rect x="10" y="1.3" class="st1" width="154.5" height="9.9"/>
<rect x="10" y="188.8" class="st1" width="154.5" height="9.9"/>
<rect x="71.5" y="135" class="st1" width="10.9" height="34.6"/>
<rect x="91.3" y="111.9" class="st1" width="10.9" height="34.6"/>
</svg>
