<?xml version="1.0" standalone="no"?><!DOCTYPE svg PUBLIC "-//W3C//DTD SVG 1.1//EN" "http://www.w3.org/Graphics/SVG/1.1/DTD/svg11.dtd"><svg t="1605166561295" class="icon" viewBox="0 0 1024 1024" version="1.1" xmlns="http://www.w3.org/2000/svg" p-id="33044" width="30" height="30" xmlns:xlink="http://www.w3.org/1999/xlink"><defs><style type="text/css"></style></defs><path d="M212.133862 170.21585h258.211366V232.697522H212.133862z" p-id="33045" fill="#D5402B"></path><path d="M928.973239 0.00033H94.993105A77.994818 77.994818 0 0 0 16.899268 78.094168v587.750197a77.994818 77.994818 0 0 0 78.093837 78.093838h385.749231v70.205238a107.997902 107.997902 0 0 0-69.314057 65.68332 32.181527 32.181527 0 0 0-6.007218-0.59412H116.348436a31.323352 31.323352 0 0 0-31.224332 31.224332 31.323352 31.323352 0 0 0 31.224332 31.224333h291.350087a107.205742 107.205742 0 0 0 208.569298 0h288.808571a30.993286 30.993286 0 0 0 31.224333-31.224333 31.323352 31.323352 0 0 0-31.224333-31.224332h-288.973604a34.392975 34.392975 0 0 0-3.564723 0.231047 107.832869 107.832869 0 0 0-69.281051-65.320247v-70.205238h385.716225a78.423905 78.423905 0 0 0 78.093837-78.588938V78.094168A77.994818 77.994818 0 0 0 928.973239 0.00033zM556.756752 916.794258A44.757077 44.757077 0 1 1 511.999675 872.004175a44.42701 44.42701 0 0 1 44.757077 44.790083z m387.86166-251.444993a15.67818 15.67818 0 0 1-15.645173 15.612166H94.993105a15.645173 15.645173 0 0 1-15.645173-15.612166v-262.403216h865.27048zM79.380939 340.464377V78.094168a15.67818 15.67818 0 0 1 15.645173-15.612166h833.947127a15.645173 15.645173 0 0 1 15.645173 15.612166v262.403216z" p-id="33046" fill="#D5402B"></path><path d="M212.133862 510.712904h258.211366v62.481671H212.133862z" p-id="33047" fill="#D5402B"></path></svg>