<svg id="图层_1" data-name="图层 1" xmlns="http://www.w3.org/2000/svg" xmlns:xlink="http://www.w3.org/1999/xlink" viewBox="0 0 175.32 170"><defs><style>.cls-1{fill:url(#未命名的渐变_13);}.cls-2{fill:#07091e;}.cls-3{fill:none;}</style><linearGradient id="未命名的渐变_13" x1="988.21" y1="620.59" x2="988.21" y2="482.23" gradientUnits="userSpaceOnUse"><stop offset="0" stop-color="#fff"/><stop offset="0.54" stop-color="#fbc289"/><stop offset="1" stop-color="#f8902a"/></linearGradient></defs><title>事件总数</title><path class="cls-1" d="M1036.46,620.59H940a11.19,11.19,0,0,1-11.2-11.2V482.23h107.69a11.21,11.21,0,0,1,11.2,11.2v116A11.2,11.2,0,0,1,1036.46,620.59Z" transform="translate(-872.34 -455)"/><path class="cls-2" d="M1027.78,521.11" transform="translate(-872.34 -455)"/><path class="cls-2" d="M1029.91,473.29h-24.25V461.17a6.06,6.06,0,1,0-12.12,0v12.12H920.82V461.17a6.06,6.06,0,0,0-12.12,0v12.12H884.46a12.16,12.16,0,0,0-12.12,12.12V612.67a12.16,12.16,0,0,0,12.12,12.12h145.45A12.16,12.16,0,0,0,1042,612.67V485.41a12.16,12.16,0,0,0-12.12-12.12ZM884.46,485.41H908.7v6.66a6.06,6.06,0,1,0,12.12,0v-6.66h72.72v6.66a6.06,6.06,0,1,0,12.12,0v-6.66h24.25v24.24H884.46Zm145.45,127.26H884.46v-90.9h145.45ZM908.7,558.13h97a6.06,6.06,0,1,0,0-12.12h-97a6.06,6.06,0,0,0,0,12.12Zm0,30.3h97a6.06,6.06,0,1,0,0-12.12h-97a6.06,6.06,0,0,0,0,12.12Zm0,0" transform="translate(-872.34 -455)"/><rect class="cls-3" x="0.02" width="169.82" height="170"/></svg>