<?xml version="1.0" encoding="utf-8"?>
<!-- Generator: Adobe Illustrator 23.1.0, SVG Export Plug-In . SVG Version: 6.00 Build 0)  -->
<svg version="1.1" id="图层_1" xmlns="http://www.w3.org/2000/svg" xmlns:xlink="http://www.w3.org/1999/xlink" x="0px" y="0px"
	 viewBox="0 0 200 200" style="enable-background:new 0 0 200 200;" xml:space="preserve">
<style type="text/css">
	.st0{fill:url(#SVGID_1_);}
	.st1{fill:#000019;}
</style>
<linearGradient id="SVGID_1_" gradientUnits="userSpaceOnUse" x1="119.4332" y1="2" x2="119.4332" y2="171.1023" gradientTransform="matrix(1 0 0 -1 0 202)">
	<stop  offset="0" style="stop-color:#FFFFFF"/>
	<stop  offset="0.5422" style="stop-color:#FBC289"/>
	<stop  offset="1" style="stop-color:#F8902A"/>
</linearGradient>
<rect x="52.4" y="30.9" class="st0" width="134.1" height="169.1"/>
<g>
	<path class="st1" d="M152.1,195.3H24.7c-6.4,0-11.5-5.1-11.5-11.5V31.2c0-6.4,5.1-11.5,11.5-11.5h23.8v12.5H25.7v150.5H151V32.3
		h-25.5V19.7h26.5c6.4,0,11.5,5.1,11.5,11.5v152.6C163.5,190.2,158.4,195.3,152.1,195.3z"/>
	<path class="st1" d="M119.6,51.5H57.1c-6.4,0-11.5-5.1-11.5-11.5V11.5C45.6,5.1,50.7,0,57.1,0h62.5c6.4,0,11.5,5.1,11.5,11.5V40
		C131.1,46.3,126,51.5,119.6,51.5z M58.1,38.9h60.4V12.5H58.1V38.9z"/>
</g>
<path class="st1" d="M88.1,142.1c-20.3,0-36.7-16.5-36.7-36.7s16.5-36.7,36.7-36.7s36.7,16.5,36.7,36.7
	C124.8,125.7,108.3,142.1,88.1,142.1z M88.1,78.1c-15.1,0-27.3,12.2-27.3,27.3c0,15,12.2,27.3,27.3,27.3c15,0,27.3-12.2,27.3-27.3
	C115.4,90.3,103.1,78.1,88.1,78.1z"/>
<path class="st1" d="M104,109H88c-2.6,0-4.7-2.1-4.7-4.7v-18c0-2.6,2.1-4.7,4.7-4.7c2.6,0,4.7,2.1,4.7,4.7v13.3H104
	c2.6,0,4.7,2.1,4.7,4.7S106.6,109,104,109z"/>
</svg>
