<svg id="图层_1" data-name="图层 1" xmlns="http://www.w3.org/2000/svg" xmlns:xlink="http://www.w3.org/1999/xlink" viewBox="0 0 165.55 171.43"><defs><style>.cls-1{fill:url(#未命名的渐变_13);}.cls-2{fill:#07091e;}</style><linearGradient id="未命名的渐变_13" x1="978.25" y1="625.72" x2="978.25" y2="477.02" gradientUnits="userSpaceOnUse"><stop offset="0" stop-color="#fff"/><stop offset="0.54" stop-color="#fbc289"/><stop offset="1" stop-color="#f8902a"/></linearGradient></defs><title>产品中心</title><path class="cls-1" d="M973.23,477.59l-54.65,24.5a6.57,6.57,0,0,0-3.89,5.94l-1,85.43a6.59,6.59,0,0,0,3.95,6.12l58.77,25.59a6.59,6.59,0,0,0,5.41-.07L1039,598.55a6.59,6.59,0,0,0,3.8-6V512.05a6.6,6.6,0,0,0-3.77-6l-60.26-28.44A6.63,6.63,0,0,0,973.23,477.59Z" transform="translate(-877.23 -454.28)"/><path class="cls-2" d="M951.67,531.42a11.92,11.92,0,0,1-7.53-2.65l-58.73-26.19a6,6,0,0,1-1.8-1.24,12,12,0,0,1,0-17,6,6,0,0,1,1.8-1.24l58.73-26.19a12,12,0,0,1,15.06,0l58.73,26.19a6,6,0,0,1,1.8,1.24,12,12,0,0,1,0,17,6,6,0,0,1-1.8,1.24L959.2,528.77A11.92,11.92,0,0,1,951.67,531.42Zm-58.6-38.57,56.8,25.34a6.19,6.19,0,0,1,1.8,1.23h0a5.86,5.86,0,0,1,1.79-1.24l56.8-25.34-56.8-25.33a1.93,1.93,0,0,0-3.6,0Z" transform="translate(-877.23 -454.28)"/><path class="cls-2" d="M943.23,619.35a6.09,6.09,0,0,1-2.47-.52l-60-27a6,6,0,0,1-3.53-5.48v-70a6,6,0,0,1,8.46-5.47l60,27a6,6,0,0,1,3.54,5.47v70a6,6,0,0,1-6,6Zm-54-36.88,48,21.6V547.23l-48-21.6Z" transform="translate(-877.23 -454.28)"/><path class="cls-2" d="M961.23,619.35a6,6,0,0,1-6-6v-70a6,6,0,0,1,3.53-5.47l60-27a6,6,0,0,1,8.47,5.47v70a6,6,0,0,1-3.54,5.48l-60,27A6.07,6.07,0,0,1,961.23,619.35Zm6-72.12v56.84l48-21.6V525.63Z" transform="translate(-877.23 -454.28)"/></svg>