<?xml version="1.0" encoding="utf-8"?>
<!-- Generator: Adobe Illustrator 23.1.0, SVG Export Plug-In . SVG Version: 6.00 Build 0)  -->
<svg version="1.1" id="图层_1" xmlns="http://www.w3.org/2000/svg" xmlns:xlink="http://www.w3.org/1999/xlink" x="0px" y="0px"
	 viewBox="0 0 200 200" style="enable-background:new 0 0 200 200;" xml:space="preserve">
<style type="text/css">
	.st0{fill:url(#SVGID_1_);}
	.st1{fill:#000019;}
</style>
<linearGradient id="SVGID_1_" gradientUnits="userSpaceOnUse" x1="134.55" y1="4.5" x2="134.55" y2="169.1" gradientTransform="matrix(1 0 0 -1 0 202)">
	<stop  offset="0" style="stop-color:#FFFFFF"/>
	<stop  offset="0.5422" style="stop-color:#FBC289"/>
	<stop  offset="1" style="stop-color:#F8902A"/>
</linearGradient>
<path class="st0" d="M194.2,197.5H74.9V32.9h63.8c30.6,0,55.5,24.8,55.5,55.5V197.5z"/>
<path class="st1" d="M55.2,50.3C55.2,29.6,72.3,13,92.9,13s37.7,16.6,37.7,37.3s-16.8,36.1-37.4,36.1C72.6,86.4,55.2,71,55.2,50.3z
	 M19.9,173.7v-0.3c0-37.8,29.2-69,66.1-72.6l7.9-1.2c8.5-0.7,20.5-1.7,26.8-7.4l2.9-2.1c12.1-10,19.2-24.2,19.2-39.9
	c0-27.8-22.7-50.6-51.1-50.6c-26.3,0-49,22.8-49,50.6c0,15.7,7.1,29.9,19.2,39.9l3.5,2.1l-3.5,1.4c-32.7,12.8-54.7,44.1-54.7,79.7
	c-0.1,13.3,10.4,26.1,23.6,26.2h63c2.1,0,6.6-3.3,6.6-6.7c0-3.3-4.5-6.7-6.6-6.7H31.1C24.9,186.4,20,179.9,19.9,173.7z"/>
<path class="st1" d="M166.4,194.3h-51.1L89.7,150l25.6-44.3h51.1L192,150L166.4,194.3z M122.2,182.3h37.3l18.6-32.3l-18.6-32.3
	h-37.3L103.5,150L122.2,182.3z"/>
<circle class="st1" cx="140.3" cy="147.7" r="12.5"/>
</svg>
