<svg id="图层_1" data-name="图层 1" xmlns="http://www.w3.org/2000/svg" xmlns:xlink="http://www.w3.org/1999/xlink" viewBox="0 0 178.65 170.7"><defs><style>.cls-1{fill:url(#未命名的渐变_2);}.cls-2,.cls-3{fill:#030517;}.cls-3{stroke:#231815;stroke-miterlimit:10;}</style><linearGradient id="未命名的渐变_2" x1="109.79" y1="167.08" x2="109.79" y2="29.37" gradientUnits="userSpaceOnUse"><stop offset="0" stop-color="#fff"/><stop offset="0.54" stop-color="#f5be87"/><stop offset="1" stop-color="#ef8c2f"/></linearGradient></defs><title>今日基线检查通过率</title><circle class="cls-1" cx="109.79" cy="98.22" r="68.86"/><path class="cls-2" d="M1016.7,479.62a85.8,85.8,0,0,0-121,0,85.52,85.52,0,1,0,121,0Zm11.68,60.52a71.61,71.61,0,0,1-21.19,51,72.51,72.51,0,0,1-102.28,0,72.25,72.25,0,1,1,123.47-51Z" transform="translate(-870.67 -454.65)"/><path class="cls-2" d="M985.55,512.33l-39.32,39.24L932.44,537.8a7.67,7.67,0,1,0-10.86,10.83L940.1,567.1a5.43,5.43,0,0,0,.56.85,7.81,7.81,0,0,0,10.86,0l44.89-44.79a7.67,7.67,0,1,0-10.86-10.83Z" transform="translate(-870.67 -454.65)"/><path class="cls-3" d="M982.9,512.47" transform="translate(-870.67 -454.65)"/></svg>