<svg id="图层_1" data-name="图层 1" xmlns="http://www.w3.org/2000/svg" xmlns:xlink="http://www.w3.org/1999/xlink" viewBox="0 0 179.2 185.88"><defs><style>.cls-1{fill:url(#未命名的渐变_2);}.cls-2{fill:#030517;}</style><linearGradient id="未命名的渐变_2" x1="975.89" y1="632.94" x2="975.89" y2="478.82" gradientUnits="userSpaceOnUse"><stop offset="0" stop-color="#fff"/><stop offset="0.54" stop-color="#f5be87"/><stop offset="1" stop-color="#ef8c2f"/></linearGradient></defs><title>今日基线检查资产数</title><path class="cls-1" d="M1049.54,511.35c-1.24-18.62-32.47-32.53-73.65-32.53s-72.42,13.91-73.65,32.53h-.06v88h0c.06,19.18,31.72,33.63,73.71,33.63s73.65-14.45,73.71-33.63h0v-88Z" transform="translate(-870.4 -447.06)"/><path class="cls-2" d="M1044.42,485.48c-1.46-22-38.34-38.42-87-38.42s-85.52,16.42-87,38.42h-.07V589.35h0c.06,22.64,37.46,39.71,87,39.71s87-17.07,87-39.71h0V485.48Zm-87-26.42c42.95,0,75,14.66,75,27.77s-32.09,27.77-75,27.77-75.05-14.66-75.05-27.77S914.5,459.06,957.45,459.06Zm0,158c-43,0-75.05-14.66-75.05-27.77V555.88c14.87,11.58,42.3,19,75.05,19s60.17-7.45,75-19v33.41C1032.49,602.4,1000.4,617.06,957.45,617.06Zm0-54.15c-43,0-75.05-14.66-75.05-27.77V507.57c14.87,11.58,42.3,19,75.05,19s60.17-7.45,75-19v27.57C1032.49,548.25,1000.4,562.91,957.45,562.91Z" transform="translate(-870.4 -447.06)"/></svg>