<svg id="图层_1" data-name="图层 1" xmlns="http://www.w3.org/2000/svg" xmlns:xlink="http://www.w3.org/1999/xlink" viewBox="0 0 170 137.08"><defs><style>.cls-1{fill:url(#未命名的渐变_13);}</style><linearGradient id="未命名的渐变_13" x1="990.12" y1="587.22" x2="990.12" y2="471.77" gradientUnits="userSpaceOnUse"><stop offset="0" stop-color="#fff"/><stop offset="0.54" stop-color="#fbc289"/><stop offset="1" stop-color="#f8902a"/></linearGradient></defs><title>供应商管理</title><path class="cls-1" d="M936.67,500.22v87l107-2L1024.23,496a66.66,66.66,0,0,0-25.56-17.79C931.65,455.46,936.67,500.22,936.67,500.22Z" transform="translate(-875 -471.46)"/><rect x="94.11" y="16.86" width="12.16" height="62.59" rx="5.61"/><path d="M977,471.77v-.15l-1.6-.11c-.08,0-.32,0-85.78-.05A14.6,14.6,0,0,0,875,486v84.88a14.59,14.59,0,0,0,14.58,14.57h4.31v-.29a6.14,6.14,0,0,0-1.51-12l-.4,0H890.2A3.19,3.19,0,0,1,887,570V487a3.19,3.19,0,0,1,3.19-3.19h84.88l1.72,0v-.2a6.12,6.12,0,0,0,.16-11.78ZM892.33,573.21Z" transform="translate(-875 -471.46)"/><path d="M1044.23,559.86l-11.79-50.57c-3.36-14.19-14.8-21.85-23.85-21.85H995a6.6,6.6,0,0,0-6.51,6.51V544.6a6.6,6.6,0,0,0,6.51,6.51h19a2.84,2.84,0,0,0,.66-.07h.17a5.63,5.63,0,1,0-.76-11.21l-13.58,0v-41.1l8.17,0c2.34,0,9.84,2.92,12.07,11.83l12.49,52c1.52,8-1,9.07-1.88,9.41-.22.07-.42.15-.61.23a6.16,6.16,0,0,0-1.46,11.46,6.14,6.14,0,0,0,6.27-.32C1041.18,580.57,1047.15,574.22,1044.23,559.86Z" transform="translate(-875 -471.46)"/><path d="M1000.82,561.75A23.49,23.49,0,0,0,978.24,579l-34.42,0a23.4,23.4,0,1,0,0,12.29h34.43a23.4,23.4,0,1,0,22.57-29.54Zm12.63,23.45a12.63,12.63,0,1,1-12.63-12.63A12.64,12.64,0,0,1,1013.45,585.2Zm-79.59,0a12.63,12.63,0,1,1-12.62-12.63A12.63,12.63,0,0,1,933.86,585.2Z" transform="translate(-875 -471.46)"/></svg>