<svg id="图层_1" data-name="图层 1" xmlns="http://www.w3.org/2000/svg" xmlns:xlink="http://www.w3.org/1999/xlink" viewBox="0 0 170 167.99"><defs><style>.cls-1{fill:url(#未命名的渐变_9);}.cls-2{fill:#07091e;}</style><linearGradient id="未命名的渐变_9" x1="952.5" y1="620.71" x2="952.5" y2="482.36" gradientUnits="userSpaceOnUse"><stop offset="0" stop-color="#fff"/><stop offset="0.54" stop-color="#fbc289"/><stop offset="1" stop-color="#f8902a"/></linearGradient></defs><title>公告管理</title><path class="cls-1" d="M919.2,513c-7.51,0-13.69,6.72-13.69,15.31v65.51c0,10.2,7.52,18.53,16.65,18.53h23.36c8.32,0,16.91,2.68,25.24,8.32l27.11,0h1.61V488.3a5.93,5.93,0,0,0-9.84-4.45l-23.72,20.87a45.82,45.82,0,0,1-26,8H919.2Z" transform="translate(-875 -456.01)"/><path class="cls-2" d="M965,624a10.77,10.77,0,0,1-6.93-2.23L935.76,602.1a26.1,26.1,0,0,0-15-4.91H901.36C886.84,597.19,875,584,875,567.7V513.42c0-14.75,11-26.81,24.35-26.81h16.53a25.83,25.83,0,0,0,15-4.69l27-23.68A12.76,12.76,0,0,1,964.8,456c4.47,0,8.71,2.68,11.62,7.14a14.55,14.55,0,0,1,2,7.82v138.5c-.22,7.82-6.26,14.52-13.4,14.52ZM898.9,500.68c-6.25,0-11.39,5.59-11.39,12.74v54.5c0,8.49,6.25,15.42,13.85,15.42H920.8c6.92,0,14.07,2.23,21,6.92l22.57,19.88h1.34v-141l-27.93,24.58a38.13,38.13,0,0,1-21.67,6.7H898.9Zm133.59,110.81a7.26,7.26,0,0,1-3.13-.9l-36-23.23a7.34,7.34,0,0,1-2.91-4.25,7.48,7.48,0,0,1,.67-5.36,7,7,0,0,1,3.8-3.35,3.35,3.35,0,0,1,1.56-.22,7.35,7.35,0,0,1,3.13.89l36.19,23.46a7.31,7.31,0,0,1,2,9.38,6.87,6.87,0,0,1-3.8,3.35,3.2,3.2,0,0,1-1.56.23Zm-35.3-64.34c-3.35,0-6.25-3.13-6.25-7.15,0-3.8,2.9-7.15,6.25-7.15H1039c3.35.23,5.81,3.35,6,7.15,0,3.8-2.9,7.15-6.25,7.15Zm-.89-41.55a6.91,6.91,0,0,1-5.58-3.58c-2-3.12-.9-7.37,2.23-9.6l36-23.24a9.44,9.44,0,0,1,3.35-.89c2,0,4,1.34,5.36,3.58a7.15,7.15,0,0,1-2.23,9.6L999.21,504.7a4.52,4.52,0,0,1-2.91.9Zm0,0" transform="translate(-875 -456.01)"/></svg>