<?xml version="1.0" encoding="utf-8"?>
<!-- Generator: Adobe Illustrator 23.1.0, SVG Export Plug-In . SVG Version: 6.00 Build 0)  -->
<svg version="1.1" id="图层_1" xmlns="http://www.w3.org/2000/svg" xmlns:xlink="http://www.w3.org/1999/xlink" x="0px" y="0px"
	 viewBox="0 0 200 200" style="enable-background:new 0 0 200 200;" xml:space="preserve">
<style type="text/css">
	.st0{fill:url(#SVGID_1_);}
	.st1{fill:#000019;}
</style>
<linearGradient id="SVGID_1_" gradientUnits="userSpaceOnUse" x1="125.3645" y1="-0.9329" x2="125.3645" y2="124.6206" gradientTransform="matrix(1 0 0 -1 0 202)">
	<stop  offset="0" style="stop-color:#FFFFFF"/>
	<stop  offset="0.5422" style="stop-color:#FBC289"/>
	<stop  offset="1" style="stop-color:#F8902A"/>
</linearGradient>
<rect x="55.7" y="77.4" class="st0" width="139.3" height="125.6"/>
<path class="st1" d="M182.8,192.2h-167c-8.7,0-15.8-7.1-15.8-15.8V66.9c0-8.7,7.1-15.8,15.8-15.8h167c8.7,0,15.8,7.1,15.8,15.8
	v109.4C198.5,185.2,191.5,192.2,182.8,192.2z M15.8,66.3c-0.4,0-0.6,0.3-0.6,0.6v109.4c0,0.4,0.3,0.6,0.6,0.6h167
	c0.4,0,0.6-0.3,0.6-0.6V66.9c0-0.4-0.3-0.6-0.6-0.6H15.8z"/>
<rect x="40.1" y="90" class="st1" width="103.5" height="15.6"/>
<path class="st1" d="M148.5,66L97.4,25.4L50.3,65.8l-9.8-11.5L92.3,9.8c2.8-2.4,6.8-2.4,9.6-0.1l56,44.5L148.5,66z"/>
<rect x="39.6" y="124.7" class="st1" width="71.3" height="15.6"/>
</svg>
