<?xml version="1.0" standalone="no"?><!DOCTYPE svg PUBLIC "-//W3C//DTD SVG 1.1//EN" "http://www.w3.org/Graphics/SVG/1.1/DTD/svg11.dtd"><svg t="1605166827563" class="icon" viewBox="0 0 1024 1024" version="1.1" xmlns="http://www.w3.org/2000/svg" p-id="36799" width="30" height="30" xmlns:xlink="http://www.w3.org/1999/xlink"><defs><style type="text/css"></style></defs><path d="M1018.148571 712.411429V36.571429a38.034286 38.034286 0 0 0-5.12-18.285715 29.257143 29.257143 0 0 0-14.628571-11.702857 27.062857 27.062857 0 0 0-13.165714 0H298.422857V0a33.645714 33.645714 0 0 0-16.822857 8.777143L16.091429 285.988571S13.165714 292.571429 11.702857 292.571429a31.451429 31.451429 0 0 0 0 5.12 29.988571 29.988571 0 0 0 0 13.897142v675.84a32.182857 32.182857 0 0 0 5.851429 18.285715v3.657143a32.914286 32.914286 0 0 0 14.628571 11.702857 31.451429 31.451429 0 0 0 10.24 2.925714h675.84a37.302857 37.302857 0 0 0 26.331429-10.971429l263.314285-275.017142a53.394286 53.394286 0 0 0 0-6.582858l3.657143-5.12a42.422857 42.422857 0 0 0 6.582857-13.897142zM269.165714 697.782857L78.994286 896.731429v-548.571429h190.171428z m51.931429 51.2h360.594286V950.857143H128z m21.211428-73.142857V348.16h339.382858v327.68z m360.594286-400.822857H342.308571V73.142857h553.691429z m51.931429 51.2l190.171428-198.948572v548.571429h-190.171428z m-485.668572-51.2H128l141.165714-146.285714z m485.668572 473.965714h141.165714l-141.165714 146.285714z" p-id="36800" fill="#D5402B"></path></svg>