<svg id="图层_1" data-name="图层 1" xmlns="http://www.w3.org/2000/svg" xmlns:xlink="http://www.w3.org/1999/xlink" viewBox="0 0 153.56 169.68"><defs><style>.cls-1{fill:url(#未命名的渐变_2);}.cls-2{fill:#030517;}</style><linearGradient id="未命名的渐变_2" x1="975.08" y1="624.84" x2="975.08" y2="483.33" gradientUnits="userSpaceOnUse"><stop offset="0" stop-color="#fff"/><stop offset="0.54" stop-color="#f5be87"/><stop offset="1" stop-color="#ef8c2f"/></linearGradient></defs><title>基线检查总通过率</title><path class="cls-1" d="M1036.77,499.51c0-8.93-9.24-16.17-18.17-16.18h-89a16.2,16.2,0,0,0-16.18,16.18V618.12c0,8.93,7.25,6.38,16.18,6.39H1005a5.41,5.41,0,0,0,4.93-3.18c.36-.31.73-.64,1.07-1l21.77-18a14.15,14.15,0,0,0,3.27-4.72,5.47,5.47,0,0,0,.79-2.79V499.51Z" transform="translate(-883.22 -455.16)"/><path class="cls-2" d="M988,511.46,943.8,555.68l-19.92-20a6.05,6.05,0,0,0-8.58,8.54l24.21,24.35a6,6,0,0,0,8.56,0l.31-.33L996.58,520a6.06,6.06,0,1,0-8.57-8.56Zm40.65-38.12a18.19,18.19,0,0,0-18.18-18.18H901.4a18.19,18.19,0,0,0-18.18,18.18V606.66a18.19,18.19,0,0,0,18.18,18.18h84.74a6.07,6.07,0,0,0,5.54-3.57c.41-.35.82-.73,1.2-1.11L1024.11,589a15.83,15.83,0,0,0,3.67-5.3,6.14,6.14,0,0,0,.89-3.14V473.34ZM986.11,609.86V588.24a6,6,0,0,1,6-6h21.65Zm6-39.71A18.12,18.12,0,0,0,974,588.24v24.47H901.4a6.07,6.07,0,0,1-6.06-6.05V473.34a6.07,6.07,0,0,1,6.06-6.06h109.08a6.07,6.07,0,0,1,6.06,6.06v96.82H992.15Zm0,0" transform="translate(-883.22 -455.16)"/></svg>