<svg id="图层_1" data-name="图层 1" xmlns="http://www.w3.org/2000/svg" xmlns:xlink="http://www.w3.org/1999/xlink" viewBox="0 0 187.18 174.78"><defs><style>.cls-1{fill:url(#未命名的渐变_2);}.cls-2{fill:#030517;}</style><linearGradient id="未命名的渐变_2" x1="978.95" y1="627.39" x2="978.95" y2="480.5" gradientUnits="userSpaceOnUse"><stop offset="0" stop-color="#fff"/><stop offset="0.54" stop-color="#f5be87"/><stop offset="1" stop-color="#ef8c2f"/></linearGradient></defs><title>基线检查总资产数</title><path class="cls-1" d="M1038.9,485.29c-8.39-3.29-19.48-4.79-31.18-4.79s-22.78,1.8-31.17,4.79c-9.6,3.6-15,8.7-15,14.69v28.18c-3.6-.3-7.5-.6-11.39-.6-11.69,0-22.79,1.8-31.18,4.8-9.59,3.6-14.69,9-14.69,14.69V607.9c0,6,5.4,11.09,14.69,14.69,8.39,3.3,19.49,4.8,31.18,4.8s22.78-1.8,31.17-4.8c8.4-3.3,13.49-7.49,14.69-12.59,3.9.3,7.8.6,11.69.6,11.7,0,22.79-1.8,31.18-4.8,9.59-3.59,14.69-8.69,14.69-14.68V500C1053.59,494,1048.19,488.89,1038.9,485.29Z" transform="translate(-866.41 -452.61)"/><path class="cls-2" d="M1048.41,478.27c0-16.84-26.76-25.66-53.19-25.66S942,461.43,942,478.27c0,.54,0,1.06.08,1.58H942v33.52a112.26,112.26,0,0,0-22.43-2.21c-26,0-52.33,8.54-53.15,24.87h0v60.49h0c0,16.82,26.78,25.63,53.19,25.63,24.2,0,48.66-7.4,52.62-21.58a109.49,109.49,0,0,0,23,2.36c26.41,0,53.15-8.81,53.19-25.63h0V479.85h-.08C1048.38,479.33,1048.41,478.81,1048.41,478.27Zm-53.19-13.66c26.65,0,41.19,9,41.19,13.66s-14.54,13.67-41.19,13.67-41.19-9-41.19-13.67S968.57,464.61,995.22,464.61ZM919.6,523.16c15.53,0,26.94,3.06,33.76,6.54.66.39,1.35.77,2.06,1.14,3.54,2.14,5.37,4.34,5.37,6,0,4.64-14.54,13.66-41.19,13.66s-41.19-9-41.19-13.66S893,523.16,919.6,523.16Zm-41.19,30.48c10.26,5.84,25.78,8.84,41.19,8.84s30.93-3,41.19-8.84V565c0,4.64-14.54,13.66-41.19,13.66s-41.19-9-41.19-13.66Zm41.19,56.51c-26.65,0-41.19-9-41.19-13.67V581.77c10.26,5.84,25.78,8.84,41.19,8.84s30.93-3,41.19-8.84v14.71C960.79,601.12,946.25,610.15,919.6,610.15Zm75.62-19.22a95.72,95.72,0,0,1-22.43-2.52V569.17a109.93,109.93,0,0,0,22.43,2.22c15.41,0,30.92-3,41.19-8.84v14.71C1036.41,581.9,1021.87,590.93,995.22,590.93Zm0-31.54a95.06,95.06,0,0,1-22.43-2.53V536.71a112.26,112.26,0,0,0,22.43,2.21c15.41,0,30.92-3,41.19-8.84v15.65C1036.41,550.37,1021.87,559.39,995.22,559.39Zm0-32.47c-15.53,0-26.94-3.07-33.77-6.54-.65-.39-1.34-.77-2-1.14-3.55-2.15-5.38-4.34-5.38-6V495.1c10.26,5.84,25.78,8.84,41.19,8.84s30.92-3,41.19-8.84v18.16C1036.41,517.89,1021.87,526.92,995.22,526.92Z" transform="translate(-866.41 -452.61)"/></svg>