<?xml version="1.0" encoding="utf-8"?>
<!-- Generator: Adobe Illustrator 23.1.0, SVG Export Plug-In . SVG Version: 6.00 Build 0)  -->
<svg version="1.1" id="图层_1" xmlns="http://www.w3.org/2000/svg" xmlns:xlink="http://www.w3.org/1999/xlink" x="0px" y="0px"
	 viewBox="0 0 200 200" style="enable-background:new 0 0 200 200;" xml:space="preserve">
<style type="text/css">
	.st0{fill:url(#SVGID_1_);}
	.st1{fill:#000019;}
</style>
<linearGradient id="SVGID_1_" gradientUnits="userSpaceOnUse" x1="125.8965" y1="6.9525" x2="125.8965" y2="165.6916" gradientTransform="matrix(1 0 0 -1 0 202)">
	<stop  offset="0" style="stop-color:#FFFFFF"/>
	<stop  offset="0.5422" style="stop-color:#FBC289"/>
	<stop  offset="1" style="stop-color:#F8902A"/>
</linearGradient>
<rect x="52.9" y="36.3" class="st0" width="146" height="158.7"/>
<rect x="36.8" y="36.3" class="st1" width="53.4" height="19.5"/>
<path class="st1" d="M169,84.3c-16.6-25.2-50.4-32.1-75.6-15.5s-32.1,50.4-15.5,75.6c14.9,22.5,43.7,30.4,67.5,19.8l23.7,35.8
	l15.2-10l-23.7-35.8C179.9,136.4,183.9,106.8,169,84.3z M144.9,146.8c-17.9,11.9-42.1,6.9-54-11.1s-6.9-42.1,11.1-54
	s42.1-6.9,54,11.1C167.9,110.9,162.8,135,144.9,146.8z"/>
<path class="st1" d="M93.6,171.1H14.2V17.7h158.6v64.6H187V15.1c0-7.2-5.3-13-11.9-13H11.9C5.3,2,0,7.9,0,15.1v158.6
	c0,7.2,5.3,13,11.9,13h81.7V171.1z"/>
</svg>
