<svg id="图层_1" data-name="图层 1" xmlns="http://www.w3.org/2000/svg" xmlns:xlink="http://www.w3.org/1999/xlink" viewBox="0 0 179.56 176.25"><defs><style>.cls-1{fill:url(#未命名的渐变_13);}.cls-2{fill:#07091e;}</style><linearGradient id="未命名的渐变_13" x1="916.38" y1="631.41" x2="916.38" y2="502.73" gradientUnits="userSpaceOnUse"><stop offset="0" stop-color="#fff"/><stop offset="0.54" stop-color="#fbc289"/><stop offset="1" stop-color="#f8902a"/></linearGradient></defs><title>处置状态</title><path class="cls-1" d="M916.38,631.41A64.34,64.34,0,1,0,852,567.07a64.42,64.42,0,0,0,64.34,64.34Z" transform="translate(-801.16 -455.16)"/><path class="cls-2" d="M908.87,478.94a24,24,0,0,0-12.67-21,23.76,23.76,0,0,0-24.8,1.63,31.69,31.69,0,0,0-3,2.44,29.63,29.63,0,0,0-2.6,3.1,24.09,24.09,0,0,0-3,5.62,23.78,23.78,0,0,0,4.81,24.35,23.77,23.77,0,0,0,10.71,6.68,23.48,23.48,0,0,0,20.45-3.41,23.61,23.61,0,0,0,10.08-19.39ZM891.07,487a16.93,16.93,0,0,1-2.06,1.19,17.17,17.17,0,0,1-2.55.7,17.77,17.77,0,0,1-2.73,0,17.38,17.38,0,0,1-2.54-.7,16.32,16.32,0,0,1-2.07-1.19,17,17,0,0,1-2.12-2.12,10,10,0,0,1-1.88-4.6,17.9,17.9,0,0,1,0-2.74,17.17,17.17,0,0,1,.7-2.55A18.27,18.27,0,0,1,877,473a18.45,18.45,0,0,1,2.12-2.12,18.27,18.27,0,0,1,2.06-1.18,10.06,10.06,0,0,1,5.28-.7,17.17,17.17,0,0,1,2.55.7,18.27,18.27,0,0,1,2.06,1.18,18.45,18.45,0,0,1,2.12,2.12,17.63,17.63,0,0,1,1.19,2.07,18.48,18.48,0,0,1,.7,2.55c0,.45.06.9.06,1.36s0,.91-.06,1.36a17.2,17.2,0,0,1-.71,2.55,16.25,16.25,0,0,1-1.18,2.07A17.6,17.6,0,0,1,891.07,487Z" transform="translate(-801.16 -455.16)"/><path class="cls-2" d="M848.67,583.18a24,24,0,0,0-12.68-21,23.74,23.74,0,0,0-24.79,1.63,30.45,30.45,0,0,0-3,2.44,26.51,26.51,0,0,0-2.6,3.1,23.73,23.73,0,0,0,33,33.24,23.64,23.64,0,0,0,10.07-19.31S848.67,583.21,848.67,583.18Zm-17.8,8.09a16.93,16.93,0,0,1-2.06,1.19,18.48,18.48,0,0,1-2.55.7,17.9,17.9,0,0,1-2.74,0,17.38,17.38,0,0,1-2.54-.7,16.93,16.93,0,0,1-2.06-1.19,16.33,16.33,0,0,1-2.12-2.12,17.37,17.37,0,0,1-1.19-2,18.48,18.48,0,0,1-.7-2.55,17.9,17.9,0,0,1,0-2.74,17.2,17.2,0,0,1,.71-2.55,16.85,16.85,0,0,1,1.18-2.06,17.69,17.69,0,0,1,2.12-2.12A18.27,18.27,0,0,1,821,573.9a17.17,17.17,0,0,1,2.55-.7,10.06,10.06,0,0,1,5.28.7,18.27,18.27,0,0,1,2.06,1.18A19.29,19.29,0,0,1,833,577.2a18.27,18.27,0,0,1,1.18,2.06,16.27,16.27,0,0,1,.7,2.57c0,.45.06.9.07,1.35s0,.9-.07,1.36a16.45,16.45,0,0,1-.7,2.56,17.3,17.3,0,0,1-1.18,2A17.69,17.69,0,0,1,830.87,591.27Z" transform="translate(-801.16 -455.16)"/><path class="cls-2" d="M956.43,562.16a23.74,23.74,0,0,0-24.79,1.63,30.45,30.45,0,0,0-3,2.44,26.51,26.51,0,0,0-2.6,3.1,23.73,23.73,0,0,0,33,33.24,23.68,23.68,0,0,0,10.08-19.39A24,24,0,0,0,956.43,562.16Zm-5.12,29.11a16.93,16.93,0,0,1-2.06,1.19,18.48,18.48,0,0,1-2.55.7,17.9,17.9,0,0,1-2.74,0,18.74,18.74,0,0,1-2.54-.7,17.63,17.63,0,0,1-2.07-1.19,16.9,16.9,0,0,1-2.11-2.12,16,16,0,0,1-1.18-2,17.2,17.2,0,0,1-.71-2.55,17.9,17.9,0,0,1,0-2.74,10.15,10.15,0,0,1,4-6.73,17.3,17.3,0,0,1,2-1.18,10.08,10.08,0,0,1,5.29-.7,17.17,17.17,0,0,1,2.55.7,18.27,18.27,0,0,1,2.06,1.18,19.29,19.29,0,0,1,2.12,2.12,18.27,18.27,0,0,1,1.18,2.06,17.64,17.64,0,0,1,.7,2.56c0,.45.06.9.07,1.36s0,.9-.07,1.36a16.45,16.45,0,0,1-.7,2.56,17.3,17.3,0,0,1-1.18,2A17.69,17.69,0,0,1,951.31,591.27Z" transform="translate(-801.16 -455.16)"/><path class="cls-2" d="M920.41,608a6.92,6.92,0,0,0-4.11-3.15,7.28,7.28,0,0,0-5.29.69l-1.53.68a69.81,69.81,0,0,1-16,4.36,70.54,70.54,0,0,1-16.81,0,69.67,69.67,0,0,1-16-4.36l-1.57-.7a7.27,7.27,0,0,0-5.29-.69,6.86,6.86,0,0,0-4.79,8.44,6.6,6.6,0,0,0,3.15,4.11,79.81,79.81,0,0,0,13.38,4.93A78.36,78.36,0,0,0,880,624.64a75.17,75.17,0,0,0,27.52-3.17,80.68,80.68,0,0,0,10.4-4.08,6.63,6.63,0,0,0,3.16-4.1A6.9,6.9,0,0,0,920.41,608Z" transform="translate(-801.16 -455.16)"/><path class="cls-2" d="M921.48,497.37c.9.63,1.78,1.28,2.65,1.95l-1.39-1.07a70.62,70.62,0,0,1,12.62,12.65l-1.07-1.39a70.1,70.1,0,0,1,9,15.34l-.69-1.64A70.14,70.14,0,0,1,947.39,541l-.25-1.82c.14,1.06.26,2.13.36,3.2a7.22,7.22,0,0,0,2,4.86,6.87,6.87,0,0,0,9.71,0,6.64,6.64,0,0,0,2-4.86,83.11,83.11,0,0,0-2.1-12.83,79.78,79.78,0,0,0-4.21-12,75,75,0,0,0-12.63-19.7,77,77,0,0,0-13.88-12.29,6.63,6.63,0,0,0-5.29-.69,6.86,6.86,0,0,0-4.79,8.44,7.22,7.22,0,0,0,3.15,4.1Z" transform="translate(-801.16 -455.16)"/><path class="cls-2" d="M822.7,542.34c.09-1.07.21-2.13.35-3.2L822.8,541a70.28,70.28,0,0,1,4.83-17.73l-.69,1.64a70.18,70.18,0,0,1,9.07-15.5l-1.08,1.38a71.1,71.1,0,0,1,12.47-12.47L846,499.37c.86-.67,1.74-1.32,2.63-1.95a7.31,7.31,0,0,0,3.16-4.1,6.87,6.87,0,0,0-4.8-8.45,6.72,6.72,0,0,0-5.29.69,74.44,74.44,0,0,0-17.83,17.23,75.37,75.37,0,0,0-11,20.73A76.61,76.61,0,0,0,809,542.34a6.65,6.65,0,0,0,2,4.86,6.87,6.87,0,0,0,9.71,0,7.32,7.32,0,0,0,2-4.86Z" transform="translate(-801.16 -455.16)"/><path class="cls-2" d="M822.7,542.34" transform="translate(-801.16 -455.16)"/></svg>