<?xml version="1.0" encoding="utf-8"?>
<!-- Generator: Adobe Illustrator 23.1.0, SVG Export Plug-In . SVG Version: 6.00 Build 0)  -->
<svg version="1.1" id="图层_1" xmlns="http://www.w3.org/2000/svg" xmlns:xlink="http://www.w3.org/1999/xlink" x="0px" y="0px"
	 viewBox="0 0 200 200" style="enable-background:new 0 0 200 200;" xml:space="preserve">
<style type="text/css">
	.st0{fill:url(#SVGID_1_);}
	.st1{fill:#07091E;}
</style>
<linearGradient id="SVGID_1_" gradientUnits="userSpaceOnUse" x1="121.1986" y1="189.5904" x2="121.1986" y2="20.8583">
	<stop  offset="0" style="stop-color:#FFFFFF"/>
	<stop  offset="0.5422" style="stop-color:#FBC289"/>
	<stop  offset="1" style="stop-color:#F8902A"/>
</linearGradient>
<path class="st0" d="M116.6,187.8c0,0-43-23.4-55.8-47.5S48.1,63.1,48.1,63.1c0-3,1.6-5.7,4.3-7.1L116,22.2c3.3-1.7,7.2-1.7,10.4,0
	L190,56c2.6,1.4,4.3,4.1,4.3,7.1c0,0,1,53.7-11.4,79.9c-12.4,26.2-57.1,44.9-57.1,44.9C123.2,190.2,119.3,190.1,116.6,187.8z"/>
<path class="st1" d="M96,199.4c-3,0-6-1-8.5-2.9c-5.5-3.1-49-27.8-63.1-54.3C9.8,114.7,9.6,57,9.6,54.6c0-5.5,3-10.5,7.9-13.1
	L87.3,4.3c5.3-2.8,11.7-2.8,17.1,0l69.8,37.2c4.8,2.6,7.8,7.6,7.9,13c0.1,3.1,0.9,60.8-13,90.3c-13.6,28.8-58.5,49.1-65,51.9
	C101.6,198.5,98.8,199.4,96,199.4z M95.9,14.2c-1,0-2,0.2-2.9,0.7L23.1,52.1c-0.9,0.5-1.5,1.5-1.5,2.5c0,0.6,0.2,57.1,13.4,81.9
	c13,24.5,58.3,49.4,58.8,49.7l0.6,0.3l0.5,0.4c0.7,0.6,1.6,0.6,2.3,0l0.7-0.6l0.8-0.4c0.5-0.2,47.1-20,59.6-46.3
	c12.8-27.1,11.9-84.4,11.9-85l0-0.1c0-1.1-0.6-2-1.5-2.5L98.7,14.9C97.8,14.5,96.8,14.2,95.9,14.2z"/>
<rect x="57.8" y="60.6" class="st1" width="83.9" height="12"/>
<rect x="57.8" y="86.6" class="st1" width="83.9" height="12"/>
<rect x="57.8" y="116.6" class="st1" width="65.4" height="12"/>
</svg>
