<?xml version="1.0" standalone="no"?><!DOCTYPE svg PUBLIC "-//W3C//DTD SVG 1.1//EN" "http://www.w3.org/Graphics/SVG/1.1/DTD/svg11.dtd"><svg t="1605166807841" class="icon" viewBox="0 0 1024 1024" version="1.1" xmlns="http://www.w3.org/2000/svg" p-id="36377" width="30" height="30" xmlns:xlink="http://www.w3.org/1999/xlink"><defs><style type="text/css"></style></defs><path d="M513.812786 1024c-206.030681 0-447.892786-319.923418-447.892786-483.724209V192.199112a63.984684 63.984684 0 0 1 18.555558-44.149431 63.984684 63.984684 0 0 1 39.670504-17.275865C229.080943 128.214429 401.839589 101.980708 464.544579 23.279547A67.823765 67.823765 0 0 1 507.414317 0.245061a63.984684 63.984684 0 0 1 46.708819 14.716478 570.743378 570.743378 0 0 0 339.758671 117.731818 63.984684 63.984684 0 0 1 63.984683 63.984683v354.475148C956.586797 695.758573 729.44117 1024 513.812786 1024zM513.812786 64.229745C432.552237 167.245086 232.920024 192.199112 129.904684 192.199112v345.517292C129.904684 675.283474 344.893221 960.015316 513.812786 960.015316s378.789327-290.490464 378.789327-408.862128V196.67804A639.846837 639.846837 0 0 1 513.812786 64.229745z" p-id="36378" fill="#D5402B"></path><path d="M508.694011 728.390761a63.984684 63.984684 0 0 1-57.586215-35.831422L282.188231 341.283425a31.992342 31.992342 0 0 1 57.586215-27.513414l169.559412 351.275914L682.732351 313.770011a31.992342 31.992342 0 0 1 42.869738-14.716477 32.632189 32.632189 0 0 1 14.07663 42.869738L565.000533 693.199185a63.984684 63.984684 0 0 1-56.306522 35.191576z" p-id="36379" fill="#D5402B"></path></svg>