<?xml version="1.0" encoding="utf-8"?>
<!-- Generator: Adobe Illustrator 23.1.0, SVG Export Plug-In . SVG Version: 6.00 Build 0)  -->
<svg version="1.1" id="图层_1" xmlns="http://www.w3.org/2000/svg" xmlns:xlink="http://www.w3.org/1999/xlink" x="0px" y="0px"
	 viewBox="0 0 200 200" style="enable-background:new 0 0 200 200;" xml:space="preserve">
<style type="text/css">
	.st0{fill:url(#SVGID_1_);}
	.st1{fill:#000019;}
</style>
<linearGradient id="SVGID_1_" gradientUnits="userSpaceOnUse" x1="119.8834" y1="2" x2="119.8834" y2="166.7788" gradientTransform="matrix(1 0 0 -1 0 202)">
	<stop  offset="0" style="stop-color:#FFFFFF"/>
	<stop  offset="0.5422" style="stop-color:#FBC289"/>
	<stop  offset="1" style="stop-color:#F8902A"/>
</linearGradient>
<path class="st0" d="M119.6,35.5l0.4-0.3l0.4,0.3c1.2,0.9,13,9.1,30.6,16.3c17.2,7,33.5,7.8,36.5,7.9h0.5v68.9
	c0,15.2-9.3,32.8-25.5,48.4c-14.3,13.7-31.5,22.9-42.7,22.9c-5.2,0-12.1-2.2-19.6-6c-8.4-4.6-16.2-10.2-23.1-16.8
	c-16.3-15.6-25.5-33.1-25.5-48.4V59.6h0.6c0.7,0,18.1-0.3,36.5-7.9C99.6,47.5,109.9,42,119.6,35.5L119.6,35.5L119.6,35.5z"/>
<path class="st1" d="M96.6,197.1c-8,0-17.3-2.7-27-7.7c-8.9-4.7-17.9-11.2-26-18.9c-18.9-18-29.7-39.5-29.7-58.8V28.7l19.4-0.3
	c9.3-0.4,18.5-2.5,27.2-5.9c15-6,24.3-12.8,24.4-12.9l11.6-8.4l11.9,8.6c1.1,0.8,10.3,7.1,24.2,12.8c8.6,3.4,17.8,5.4,27.1,5.9
	l19.4,0.3v83c0,10.5-3,21.4-9,32.4c-5.5,9.9-12.5,18.8-20.7,26.5c-7.6,7.4-16.3,13.7-25.6,18.7C114,194.4,104.6,197.1,96.6,197.1z
	 M26.4,40.9v70.7c0,16,9.4,34.2,25.9,49.8c7.3,6.9,15.3,12.8,23.2,16.9s15.2,6.3,21.2,6.3c6,0,13.4-2.2,21.4-6.4
	c8.3-4.5,16.1-10.2,22.9-16.7c7.4-6.9,13.5-14.7,18.4-23.5c5-9,7.5-18,7.5-26.4V41l-7.5-0.1c-10.7-0.6-21.2-2.9-31.1-6.7
	c-15.2-6.1-25.1-13-27.1-14.3l0,0l-4.5-3.2l-4.3,3.1c-0.4,0.3-10.6,7.7-27.1,14.4c-10.1,4-20.6,6.3-31.4,6.9h-0.2L26.4,40.9z"/>
<polygon class="st1" points="53.6,125.4 43.5,118.1 77.5,71.6 111.7,105.7 143.2,58 153.6,64.9 113.7,125.4 79,90.7 "/>
</svg>
