<svg id="图层_1" data-name="图层 1" xmlns="http://www.w3.org/2000/svg" xmlns:xlink="http://www.w3.org/1999/xlink" viewBox="0 0 174.99 170"><defs><style>.cls-1{fill:url(#未命名的渐变_9);}.cls-2{fill:none;}</style><linearGradient id="未命名的渐变_9" x1="1001.53" y1="613.23" x2="1001.53" y2="457.71" gradientUnits="userSpaceOnUse"><stop offset="0" stop-color="#fff"/><stop offset="0.54" stop-color="#fbc289"/><stop offset="1" stop-color="#f8902a"/></linearGradient></defs><title>审批管理</title><path class="cls-1" d="M1023.92,553.93H980.37c1.38-8.28,6.84-15.23,12.7-21.2,8.16-9,16.34-22.17,16-34-.35-23.79-26.75-40-51.34-41-.73,0-1.45,0-2.16,0v155.5h85a6.78,6.78,0,0,0,6.89-6.56v-33C1047.49,562.89,1035.19,553.93,1023.92,553.93Z" transform="translate(-872.51 -455)"/><path d="M1029.27,624.75H878.83a6.21,6.21,0,0,1-6.32-6,6.14,6.14,0,0,1,6.32-6h150.54a6.21,6.21,0,0,1,6.32,6,6.37,6.37,0,0,1-6.42,6Zm0-24.23H878.83a6.21,6.21,0,0,1-6.32-6V564.18c0-10,8.42-18.12,18.85-18.12H931.5c-1.26-7.27-5.06-14.23-10.32-20.34A41.45,41.45,0,0,1,923.71,467c8.74-8.21,20-12.11,32.34-11.79,22.54.94,41.72,19.7,42,41.5.32,10.85-4.11,21.49-11.59,29.71a35.75,35.75,0,0,0-9.69,19.7h39.93c10.32,0,18.86,8.22,18.86,18.12v30.24a6.21,6.21,0,0,1-6.32,6ZM885,588.41h138V564.18a6.14,6.14,0,0,0-6.32-6h-47a6.21,6.21,0,0,1-6.32-6,48.59,48.59,0,0,1,13.49-33.93,29.66,29.66,0,0,0,8.42-21.17c-.31-15.7-13.8-29.08-30.13-29.71a31.12,31.12,0,0,0-22.86,8.43,29.34,29.34,0,0,0-9.69,21.81,30.2,30.2,0,0,0,7.8,20c9.06,10,14.11,22.13,14.11,34.56a6.14,6.14,0,0,1-6.32,6H891.36a6.22,6.22,0,0,0-6.32,6Zm0,0" transform="translate(-872.51 -455)"/><rect class="cls-2" width="163.27" height="170"/></svg>