<svg id="图层_1" data-name="图层 1" xmlns="http://www.w3.org/2000/svg" xmlns:xlink="http://www.w3.org/1999/xlink" viewBox="0 0 132.6 174.74"><defs><style>.cls-1{fill:url(#未命名的渐变_9);}.cls-2{fill:#07091e;}</style><linearGradient id="未命名的渐变_9" x1="977.5" y1="627.37" x2="977.5" y2="457.63" gradientUnits="userSpaceOnUse"><stop offset="0" stop-color="#fff"/><stop offset="0.54" stop-color="#fbc289"/><stop offset="1" stop-color="#f8902a"/></linearGradient></defs><title>客户管理</title><path class="cls-1" d="M1026,592.84a10.63,10.63,0,0,1-5.84,12.26l-43.66,21.29c-2.84,1.31,4.9,1.31,2.06,0L934.87,605.1A10.63,10.63,0,0,1,929,592.84l24-85.14a10.58,10.58,0,0,1-2.76-4.92l-8-31.93a10.65,10.65,0,0,1,10.32-13.22h49.87a10.63,10.63,0,0,1,10.32,13.22l-8,31.93a10.57,10.57,0,0,1-2.77,4.92l24,85.14Z" transform="translate(-893.7 -452.63)"/><path class="cls-2" d="M975.31,502.93" transform="translate(-893.7 -452.63)"/><path class="cls-2" d="M928.18,505.84l-23.84,84.6L948,611.73l43.66-21.29L965.5,496.62l5-1.42,8-31.93H917.57l8,31.93.27.08a4.4,4.4,0,0,1,.89-.08h26.61a5.32,5.32,0,0,1,0,10.64Zm73.79,82a10.63,10.63,0,0,1-5.84,12.26l-43.66,21.29a10.66,10.66,0,0,1-8.94,0L899.87,600.1A10.63,10.63,0,0,1,894,587.84l24-85.14a10.58,10.58,0,0,1-2.76-4.92l-8-31.93a10.65,10.65,0,0,1,10.32-13.22h60.87a10.63,10.63,0,0,1,10.32,13.22l-8,31.93A10.57,10.57,0,0,1,978,502.7l24,85.14Zm0,0" transform="translate(-893.7 -452.63)"/></svg>