<?xml version="1.0" encoding="utf-8"?>
<!-- Generator: Adobe Illustrator 23.1.0, SVG Export Plug-In . SVG Version: 6.00 Build 0)  -->
<svg version="1.1" id="图层_1" xmlns="http://www.w3.org/2000/svg" xmlns:xlink="http://www.w3.org/1999/xlink" x="0px" y="0px"
	 viewBox="0 0 200 200" style="enable-background:new 0 0 200 200;" xml:space="preserve">
<style type="text/css">
	.st0{fill:url(#SVGID_1_);}
	.st1{fill:#000019;}
</style>
<linearGradient id="SVGID_1_" gradientUnits="userSpaceOnUse" x1="118.7261" y1="195.6646" x2="118.7261" y2="33.7231">
	<stop  offset="0" style="stop-color:#FFFFFF"/>
	<stop  offset="0.5422" style="stop-color:#FBC289"/>
	<stop  offset="1" style="stop-color:#F8902A"/>
</linearGradient>
<circle class="st0" cx="118.7" cy="114.7" r="81"/>
<path class="st1" d="M98.6,132.5c-3.5,0-6.9-1.4-9.4-3.8L55.7,95.4l8.4-8.5l33.6,33.2c0.3,0.3,0.7,0.4,1,0.4c0.3,0,0.6-0.1,0.9-0.5
	l45.9-60.9l9.6,7.2l-45.9,60.9c-2.3,3.1-5.8,5-9.7,5.3C99.2,132.5,98.9,132.5,98.6,132.5z"/>
<rect x="0.7" y="65.1" class="st1" width="54.1" height="10.1"/>
<rect x="0.7" y="115.1" class="st1" width="54.1" height="10.1"/>
<path class="st1" d="M104.2,193c-37.7,0-71.4-22.6-85.7-57.5l11.1-4.5C42,161.3,71.3,181,104.2,181c44.4,0,80.5-36.1,80.5-80.5
	c0-44.4-36.1-80.5-80.5-80.5c-28.4,0-54.2,14.5-68.9,38.9L25,52.6c16.9-28,46.5-44.7,79.2-44.7c51,0,92.5,41.5,92.5,92.5
	C196.7,151.5,155.2,193,104.2,193z"/>
</svg>
