<?xml version="1.0" encoding="utf-8"?>
<!-- Generator: Adobe Illustrator 23.1.0, SVG Export Plug-In . SVG Version: 6.00 Build 0)  -->
<svg version="1.1" id="图层_1" xmlns="http://www.w3.org/2000/svg" xmlns:xlink="http://www.w3.org/1999/xlink" x="0px" y="0px"
	 viewBox="0 0 200 200" style="enable-background:new 0 0 200 200;" xml:space="preserve">
<style type="text/css">
	.st0{fill:url(#SVGID_1_);}
	.st1{fill:#000019;}
</style>
<linearGradient id="SVGID_1_" gradientUnits="userSpaceOnUse" x1="124.5594" y1="15.9396" x2="124.5594" y2="155.2391" gradientTransform="matrix(1 0 0 -1 0 202)">
	<stop  offset="0" style="stop-color:#FFFFFF"/>
	<stop  offset="0.5422" style="stop-color:#FBC289"/>
	<stop  offset="1" style="stop-color:#F8902A"/>
</linearGradient>
<rect x="63.4" y="46.8" class="st0" width="122.4" height="139.3"/>
<path class="st1" d="M122.3,49.7H66.4c-8.3,0-15-6.8-15-15V15c0-8.3,6.8-15,15-15h55.8c8.3,0,15,6.8,15,15v19.8
	C137.2,42.9,130.5,49.7,122.3,49.7z M66.4,13c-1.1,0-1.9,0.9-1.9,1.9v19.8c0,1.1,0.9,1.9,1.9,1.9h55.8c1.1,0,1.9-0.9,1.9-1.9V15
	c0-1.1-0.9-1.9-1.9-1.9H66.4V13z"/>
<path class="st1" d="M156.5,20h-9.7v13.1h9.7c2.4,0,4.3,2,4.3,4.3v144.4c0,2.4-2,4.3-4.3,4.3H32.1c-2.4,0-4.3-2-4.3-4.3V37.4
	c0-2.4,2-4.3,4.3-4.3h10.4V20H32.1c-9.6,0-17.4,7.8-17.4,17.4v144.4c0,9.6,7.8,17.4,17.4,17.4h124.4c9.6,0,17.4-7.8,17.4-17.4V37.4
	C173.8,27.8,166.1,20,156.5,20z"/>
<g>
	<path d="M117.5,90.7c0,4.2-1,8.1-2.9,11.7c-1.9,3.6-4.5,6.6-7.8,9.2c-3.2,2.6-5.5,5.2-6.8,7.8c-1.3,2.6-1.9,4.4-1.9,5.3v3.4h-8.7
		v-4.9c0-2.9,0.7-5.7,2.2-8.5c1.5-2.7,4-5.7,7.5-9c2.6-2.3,4.4-4.6,5.3-7c1-2.4,1.5-4.8,1.5-7c0-4.2-1-7.4-2.9-9.5
		c-1.9-2.1-4.7-3.2-8.3-3.2c-3.6,0-6.6,1.4-9,4.1c-2.4,2.8-3.6,7.2-3.6,13.4H70.9c0.3-9.1,2.7-15.8,7.3-20.2
		c4.5-4.4,10-6.6,16.5-6.6c7.1,0,12.7,1.9,16.8,5.8C115.5,79.5,117.5,84.5,117.5,90.7z M99.1,153.8H88.4v-11.7h10.7V153.8z"/>
</g>
</svg>
