<?xml version="1.0" encoding="utf-8"?>
<!-- Generator: Adobe Illustrator 23.1.0, SVG Export Plug-In . SVG Version: 6.00 Build 0)  -->
<svg version="1.1" id="图层_1" xmlns="http://www.w3.org/2000/svg" xmlns:xlink="http://www.w3.org/1999/xlink" x="0px" y="0px"
	 viewBox="0 0 200 200" style="enable-background:new 0 0 200 200;" xml:space="preserve">
<style type="text/css">
	.st0{fill:url(#SVGID_1_);}
	.st1{fill:#000019;}
</style>
<linearGradient id="SVGID_1_" gradientUnits="userSpaceOnUse" x1="118.5" y1="-134.9" x2="118.5" y2="37.1" gradientTransform="matrix(1 0 0 -1 0 64)">
	<stop  offset="0" style="stop-color:#FFFFFF"/>
	<stop  offset="0.5422" style="stop-color:#FBC289"/>
	<stop  offset="1" style="stop-color:#F8902A"/>
</linearGradient>
<rect x="51.4" y="26.9" class="st0" width="134.2" height="172"/>
<path class="st1" d="M119.6,51.5H57.1c-6.4,0-11.5-5.1-11.5-11.5V11.5C45.6,5.1,50.7,0,57.1,0h62.5c6.4,0,11.5,5.1,11.5,11.5V40
	C131.1,46.4,126,51.5,119.6,51.5z M58.1,38.9h60.5V12.5H58.1V38.9z"/>
<polygon class="st1" points="130.9,169.9 99.9,138.4 108.4,130 130.8,152.7 173.8,108.7 182.4,117.1 "/>
<path class="st1" d="M133.1,201.4c-32.4,0-58.8-26.4-58.8-58.8s26.4-58.8,58.8-58.8s58.8,26.4,58.8,58.8S165.5,201.4,133.1,201.4z
	 M133.1,95.9c-25.8,0-46.8,21-46.8,46.8c0,25.8,21,46.8,46.8,46.8s46.8-21,46.8-46.8C179.9,116.8,158.9,95.9,133.1,95.9z"/>
<g>
	<path class="st1" d="M151,78.1h12.5V31.2c0-6.4-5.1-11.5-11.5-11.5h-26.5v12.6H151V78.1z"/>
	<path class="st1" d="M79.8,182.8H25.7V32.2h22.8V19.7H24.7c-6.4,0-11.5,5.1-11.5,11.5v152.7c0,6.4,5.1,11.5,11.5,11.5h55.1V182.8z"
		/>
</g>
<rect x="42.6" y="70.7" class="st1" width="42.3" height="10.3"/>
</svg>
