<?xml version="1.0" standalone="no"?><!DOCTYPE svg PUBLIC "-//W3C//DTD SVG 1.1//EN" "http://www.w3.org/Graphics/SVG/1.1/DTD/svg11.dtd"><svg t="1605166688873" class="icon" viewBox="0 0 1024 1024" version="1.1" xmlns="http://www.w3.org/2000/svg" p-id="34366" width="30" height="30" xmlns:xlink="http://www.w3.org/1999/xlink"><defs><style type="text/css"></style></defs><path d="M1023.54221 512.252284a511.732705 511.732705 0 1 0-680.160996 482.700403 29.953421 29.953421 0 0 0 4.230324 1.535198 504.39787 504.39787 0 0 0 328.020664 0.204693 43.053778 43.053778 0 0 0 5.049096-1.842237 512.722055 512.722055 0 0 0 160.342914-91.327231 36.87887 36.87887 0 0 0 3.718591-3.411551A510.299853 510.299853 0 0 0 1023.54221 512.252284zM64.043388 512.252284a447.766117 447.766117 0 1 1 788.955369 289.333672v-313.316878a32.000352 32.000352 0 0 0-63.966588 0v374.963611a447.117922 447.117922 0 0 1-90.64492 55.505941v-237.239282a31.966236 31.966236 0 0 0-63.966588 0v261.05191a445.616839 445.616839 0 0 1-90.64492 15.863714V371.014058a32.000352 32.000352 0 1 0-63.966588 0v587.400914a446.606189 446.606189 0 0 1-90.576689-15.863714V499.288389a32.000352 32.000352 0 0 0-63.966588 0v419.620818a448.073156 448.073156 0 0 1-90.64492-55.574172v-249.72556a32.000352 32.000352 0 0 0-63.966588 0v188.112943A445.787417 445.787417 0 0 1 64.043388 512.252284z" p-id="34367" fill="#D5402B"></path></svg>