<?xml version="1.0" encoding="utf-8"?>
<!-- Generator: Adobe Illustrator 23.1.0, SVG Export Plug-In . SVG Version: 6.00 Build 0)  -->
<svg version="1.1" id="图层_1" xmlns="http://www.w3.org/2000/svg" xmlns:xlink="http://www.w3.org/1999/xlink" x="0px" y="0px"
	 viewBox="0 0 200 200" style="enable-background:new 0 0 200 200;" xml:space="preserve">
<style type="text/css">
	.st0{fill:url(#SVGID_1_);}
	.st1{fill:#000019;}
</style>
<linearGradient id="SVGID_1_" gradientUnits="userSpaceOnUse" x1="119.4332" y1="2" x2="119.4332" y2="173.9207" gradientTransform="matrix(1 0 0 -1 0 202)">
	<stop  offset="0" style="stop-color:#FFFFFF"/>
	<stop  offset="0.5422" style="stop-color:#FBC289"/>
	<stop  offset="1" style="stop-color:#F8902A"/>
</linearGradient>
<rect x="52.4" y="28.1" class="st0" width="134.1" height="171.9"/>
<g>
	<path class="st1" d="M152.1,195.3H24.7c-6.4,0-11.5-5.1-11.5-11.5V31.2c0-6.4,5.1-11.5,11.5-11.5h23.8v12.5H25.7v150.5H151V32.3
		h-25.5V19.7h26.5c6.4,0,11.5,5.1,11.5,11.5v152.6C163.5,190.2,158.4,195.3,152.1,195.3z"/>
	<path class="st1" d="M119.6,51.5H57.1c-6.4,0-11.5-5.1-11.5-11.5V11.5C45.6,5.1,50.7,0,57.1,0h62.5c6.4,0,11.5,5.1,11.5,11.5V40
		C131.1,46.3,126,51.5,119.6,51.5z M58.1,38.9h60.4V12.5H58.1V38.9z"/>
</g>
<path class="st1" d="M113,141.8H63.2c-6.5,0-11.8-5.3-11.8-11.8v-10.4c0-7.9,5.8-14.6,13.5-15.8c-0.6-2.3-1-4.6-1-7.1
	c0-6.6,2.6-12.7,7.4-17.4c4.7-4.6,10.8-6.9,17.6-6.8H89c12.7,0.5,23.2,11.2,23.3,23.8c0,2.5-0.3,5-1,7.4c7.6,1.1,13.5,7.8,13.5,15.8
	v10.4C124.8,136.4,119.5,141.8,113,141.8z M67.3,113c-3.7,0-6.6,2.9-6.6,6.6v10.4c0,1.4,1,2.4,2.4,2.4h49.8c1.3,0,2.3-1,2.3-2.4
	v-10.4c0-3.7-2.9-6.6-6.6-6.6H94.5l5.3-7.4c2-2.7,3-5.8,2.9-9.1c-0.1-7.7-6.5-14.3-14.2-14.6h-0.1c-4.3-0.1-8,1.4-10.9,4.2
	C74.7,89,73,92.8,73,96.9c0,3.2,0.9,6.3,2.8,8.8l5.4,7.5h-14V113z"/>
</svg>
