<?xml version="1.0" encoding="utf-8"?>
<!-- Generator: Adobe Illustrator 23.1.0, SVG Export Plug-In . SVG Version: 6.00 Build 0)  -->
<svg version="1.1" id="图层_1" xmlns="http://www.w3.org/2000/svg" xmlns:xlink="http://www.w3.org/1999/xlink" x="0px" y="0px"
	 viewBox="0 0 200 200" style="enable-background:new 0 0 200 200;" xml:space="preserve">
<style type="text/css">
	.st0{fill:url(#SVGID_1_);}
	.st1{fill:#000019;}
</style>
<linearGradient id="SVGID_1_" gradientUnits="userSpaceOnUse" x1="111.3178" y1="192.3188" x2="111.3178" y2="22.8942">
	<stop  offset="0" style="stop-color:#FFFFFF"/>
	<stop  offset="0.5422" style="stop-color:#FBC289"/>
	<stop  offset="1" style="stop-color:#F8902A"/>
</linearGradient>
<path class="st0" d="M144,97.7c7.4-7.9,11.9-18.6,11.9-30.3c0-24.6-20-44.6-44.6-44.6s-44.6,20-44.6,44.6c0,11.7,4.5,22.3,11.9,30.3
	C56.2,109.5,35,127,35,154.1c0,38.9,37.5,38.2,76.3,38.2s76.3,0.6,76.3-38.2C187.6,127,166.4,109.5,144,97.7z"/>
<path class="st1" d="M177.4,144.7H92c-3.3,0-6-2.7-6-6s2.7-6,6-6h71.6l-12.6-13.6c-2.2-2.4-2.1-6.2,0.3-8.5c2.4-2.2,6.2-2.1,8.5,0.3
	l21.9,23.7c1.6,1.8,2,4.3,1.1,6.5C181.9,143.3,179.7,144.7,177.4,144.7z"/>
<path class="st1" d="M113.9,195.3c-1.6,0-3.2-0.6-4.4-1.9l-21.9-23.7c-1.6-1.8-2-4.3-1.1-6.5c1-2.2,3.1-3.6,5.5-3.6h85.3
	c3.3,0,6,2.7,6,6s-2.7,6-6,6h-71.6l12.6,13.6c2.2,2.4,2.1,6.2-0.3,8.5C116.8,194.8,115.4,195.3,113.9,195.3z"/>
<path d="M123.3,25.7C112.8,15.3,99,9.5,84.3,9.5c-30.5,0-55.2,24.8-55.2,55.2c0,18,8.4,34.2,23.1,44.6l3.7,2.7l-4.2,2
	c-17.8,8.4-31.5,23-38.6,41.3c-2.9,7.9-2,16.9,2.6,23.2l0.1,0.1c4.3,6.8,12,10.8,20.6,10.8h31.2c3.6,0,6.4-2.8,6.4-6.4
	c0-3.6-2.8-6.4-6.4-6.4H37.5c-3.6,0-7.1-1.8-10.1-5.2l-0.1-0.1c-2.5-3.2-2.9-6.9-1.1-11.3c9.4-24.2,32.3-39.8,58.3-39.8
	c0.1,0,0.1,0,0.2,0c14.7,0,28.5-5.7,38.9-16.1c10.5-10.4,16.2-24.3,16.2-39v0C139.2,49.5,133.5,35.9,123.3,25.7z M84.2,107.2
	C60.9,107.2,42,88.3,42,65s18.9-42.1,42.1-42.1s42.1,18.9,42.1,42.1S107.4,107.2,84.2,107.2z"/>
</svg>
