<?xml version="1.0" encoding="utf-8"?>
<!-- Generator: Adobe Illustrator 23.1.0, SVG Export Plug-In . SVG Version: 6.00 Build 0)  -->
<svg version="1.1" id="图层_1" xmlns="http://www.w3.org/2000/svg" xmlns:xlink="http://www.w3.org/1999/xlink" x="0px" y="0px"
	 viewBox="0 0 200 200" style="enable-background:new 0 0 200 200;" xml:space="preserve">
<style type="text/css">
	.st0{fill:url(#SVGID_1_);}
	.st1{fill:#000019;}
</style>
<linearGradient id="SVGID_1_" gradientUnits="userSpaceOnUse" x1="119.4332" y1="2" x2="119.4332" y2="172.6681" gradientTransform="matrix(1 0 0 -1 0 202)">
	<stop  offset="0" style="stop-color:#FFFFFF"/>
	<stop  offset="0.5422" style="stop-color:#FBC289"/>
	<stop  offset="1" style="stop-color:#F8902A"/>
</linearGradient>
<rect x="52.4" y="29.3" class="st0" width="134.1" height="170.7"/>
<g>
	<path class="st1" d="M152.1,195.3H24.7c-6.4,0-11.5-5.1-11.5-11.5V31.2c0-6.4,5.1-11.5,11.5-11.5h23.8v12.5H25.7v150.5H151V32.3
		h-25.5V19.7h26.5c6.4,0,11.5,5.1,11.5,11.5v152.6C163.5,190.2,158.4,195.3,152.1,195.3z"/>
	<path class="st1" d="M119.6,51.5H57.1c-6.4,0-11.5-5.1-11.5-11.5V11.5C45.6,5.1,50.7,0,57.1,0h62.5c6.4,0,11.5,5.1,11.5,11.5V40
		C131.1,46.3,126,51.5,119.6,51.5z M58.1,38.9h60.4V12.5H58.1V38.9z"/>
</g>
<path class="st1" d="M79.2,137.1c-1.6,0-3.1-0.6-4.4-1.8L45.4,107c-2.5-2.4-2.6-6.4-0.2-8.9s6.4-2.6,8.9-0.2l24.5,23.6l39.1-48
	c2.2-2.7,6.2-3.1,8.8-0.9c2.7,2.2,3.1,6.2,0.9,8.8L84,134.7c-1.1,1.4-2.7,2.2-4.5,2.3C79.4,137.1,79.3,137.1,79.2,137.1z"/>
</svg>
