<svg id="图层_1" data-name="图层 1" xmlns="http://www.w3.org/2000/svg" xmlns:xlink="http://www.w3.org/1999/xlink" viewBox="0 0 160 145.75"><defs><style>.cls-1{fill:url(#未命名的渐变_9);}</style><linearGradient id="未命名的渐变_9" x1="100.5" y1="145.75" x2="100.5" y2="28.75" gradientUnits="userSpaceOnUse"><stop offset="0" stop-color="#fff"/><stop offset="0.54" stop-color="#fbc289"/><stop offset="1" stop-color="#f8902a"/></linearGradient></defs><title>报表管理</title><rect class="cls-1" x="41" y="28.75" width="119" height="117" rx="10.53"/><path d="M1028,479.13v116H892v-116h136m0-12H892a12,12,0,0,0-12,12v116a12,12,0,0,0,12,12h136a12,12,0,0,0,12-12v-116a12,12,0,0,0-12-12Z" transform="translate(-880 -467.13)"/><path d="M926.5,579.13a6,6,0,0,1-6-6v-36a6,6,0,0,1,12,0v36A6,6,0,0,1,926.5,579.13Z" transform="translate(-880 -467.13)"/><path d="M993.5,579.13a6,6,0,0,1-6-6v-48a6,6,0,0,1,12,0v48A6,6,0,0,1,993.5,579.13Z" transform="translate(-880 -467.13)"/><path d="M960,579.13a6,6,0,0,1-6-6v-72a6,6,0,0,1,12,0v72A6,6,0,0,1,960,579.13Z" transform="translate(-880 -467.13)"/></svg>