<?xml version="1.0" encoding="utf-8"?>
<!-- Generator: Adobe Illustrator 23.1.0, SVG Export Plug-In . SVG Version: 6.00 Build 0)  -->
<svg version="1.1" id="图层_1" xmlns="http://www.w3.org/2000/svg" xmlns:xlink="http://www.w3.org/1999/xlink" x="0px" y="0px"
	 viewBox="0 0 200 200" style="enable-background:new 0 0 200 200;" xml:space="preserve">
<style type="text/css">
	.st0{fill:url(#SVGID_1_);}
	.st1{fill:#000019;}
</style>
<linearGradient id="SVGID_1_" gradientUnits="userSpaceOnUse" x1="117.9438" y1="1.4931" x2="117.9438" y2="171.5687" gradientTransform="matrix(1 0 0 -1 0 202)">
	<stop  offset="0" style="stop-color:#FFFFFF"/>
	<stop  offset="0.5422" style="stop-color:#FBC289"/>
	<stop  offset="1" style="stop-color:#F8902A"/>
</linearGradient>
<path class="st0" d="M113.7,31.2L54.8,54.4c-3.5,1.4-6.1,4.4-6.9,8.1c-6.9,29.8-6.7,55.8,0.7,77.8l0.1,0.3l0.1,0.3
	c11,23.4,32.4,42.7,64,58.3c3.2,1.6,7,1.6,10.2,0l0.9-0.5c31.2-15.9,52.2-35.1,63-57.9l0.1-0.1l0.1-0.2c7.5-18.3,7.6-44.2,0.9-77.9
	c-0.8-3.8-3.5-7-7-8.4l-59-23.1C119.3,30.2,116.4,30.2,113.7,31.2z"/>
<path class="st1" d="M91.6,0.9L22.2,28.2c-4.1,1.6-7.2,5.2-8.2,9.5C5.9,73,6.1,103.5,15,129.5l0.1,0.5l0.2,0.5
	c13,27.5,38.3,50.4,75.5,68.8c3.8,1.8,8.3,1.8,12.1,0l1-0.6c36.7-18.8,61.6-41.4,74.3-68.2l0.1-0.2l0.1-0.2c8.9-21.5,9-52,1-91.8
	c-0.9-4.5-4-8.2-8.3-9.9L101.5,0.9C98.3-0.3,94.8-0.3,91.6,0.9z M96.6,16.4l67.2,26.3l0.1,0.8c6.9,35.4,6.7,62.1-0.3,79.7l-0.1,0.3
	l-0.2,0.5c-11,22.7-32.8,42.6-65.7,59.5l-0.8,0.5l-0.8-0.5c-32.7-16.6-54.4-36.5-65.7-59.5l-0.1-0.3l-0.1-0.1
	c-7.4-22.2-7.6-49-0.7-80.2l0.1-0.6L96.6,16.4L96.6,16.4z"/>
<path class="st1" d="M87.7,55.3h17.9V138H87.7V55.3z"/>
<path class="st1" d="M138,87.7v17.9H55.4V87.7H138z"/>
</svg>
