<?xml version="1.0" encoding="utf-8"?>
<!-- Generator: Adobe Illustrator 23.1.0, SVG Export Plug-In . SVG Version: 6.00 Build 0)  -->
<svg version="1.1" id="图层_1" xmlns="http://www.w3.org/2000/svg" xmlns:xlink="http://www.w3.org/1999/xlink" x="0px" y="0px"
	 viewBox="0 0 200 200" style="enable-background:new 0 0 200 200;" xml:space="preserve">
<style type="text/css">
	.st0{fill:url(#SVGID_1_);}
	.st1{fill:#000019;}
</style>
<linearGradient id="SVGID_1_" gradientUnits="userSpaceOnUse" x1="118.5" y1="337.0575" x2="118.5" y2="165.0575" gradientTransform="matrix(1 0 0 1 0 -138.1575)">
	<stop  offset="0" style="stop-color:#FFFFFF"/>
	<stop  offset="0.5422" style="stop-color:#FBC289"/>
	<stop  offset="1" style="stop-color:#F8902A"/>
</linearGradient>
<rect x="51.4" y="26.9" class="st0" width="134.2" height="172"/>
<path class="st1" d="M41.2,78.2h87v13.1h-87C41.2,91.3,41.2,78.2,41.2,78.2z M41.2,113.1h52.2v12.7H41.2
	C41.2,125.8,41.2,113.1,41.2,113.1z"/>
<g>
	<path class="st1" d="M152.1,195.4H24.7c-6.4,0-11.5-5.1-11.5-11.5V31.2c0-6.4,5.1-11.5,11.5-11.5h23.8v12.5H25.7v150.6H151V32.3
		h-25.5V19.7H152c6.4,0,11.5,5.1,11.5,11.5v152.6C163.6,190.2,158.5,195.4,152.1,195.4z"/>
	<path class="st1" d="M119.6,51.5H57.1c-6.4,0-11.5-5.1-11.5-11.5V11.5C45.6,5.1,50.7,0,57.1,0h62.5c6.4,0,11.5,5.1,11.5,11.5V40
		C131.1,46.4,126,51.5,119.6,51.5z M58.1,38.9h60.5V12.5H58.1V38.9z"/>
</g>
</svg>
