<?xml version="1.0" encoding="utf-8"?>
<!-- Generator: Adobe Illustrator 23.1.0, SVG Export Plug-In . SVG Version: 6.00 Build 0)  -->
<svg version="1.1" id="图层_1" xmlns="http://www.w3.org/2000/svg" xmlns:xlink="http://www.w3.org/1999/xlink" x="0px" y="0px"
	 viewBox="0 0 200 200" style="enable-background:new 0 0 200 200;" xml:space="preserve">
<style type="text/css">
	.st0{fill:url(#SVGID_1_);}
	.st1{fill:#000019;}
</style>
<linearGradient id="SVGID_1_" gradientUnits="userSpaceOnUse" x1="114.8248" y1="195.245" x2="114.8248" y2="33.8571">
	<stop  offset="0" style="stop-color:#FFFFFF"/>
	<stop  offset="0.5422" style="stop-color:#FBC289"/>
	<stop  offset="1" style="stop-color:#F8902A"/>
</linearGradient>
<path class="st0" d="M182.5,195.2H47.1c-9.4,0-16.8-7.5-16.2-16.4l8.5-130.5C40,40.2,47,33.9,55.6,33.9H174
	c8.6,0,15.7,6.3,16.2,14.5l8.5,130.5C199.3,187.7,191.9,195.2,182.5,195.2z"/>
<path class="st1" d="M166.1,195.1H25.4c-6.4,0-12.6-2.7-17.1-7.4C3.9,183,1.6,176.6,2,170.2l8.8-142.8c0.8-12.3,11-22,23.4-22h123
	c12.3,0,22.6,9.6,23.4,22l8.8,142.8c0.4,6.4-1.9,12.8-6.3,17.5C178.7,192.4,172.5,195.1,166.1,195.1z M34.2,18.5
	c-5.4,0-10,4.3-10.3,9.7L15.1,171c-0.2,2.9,0.8,5.6,2.8,7.7s4.6,3.3,7.5,3.3h140.7c2.9,0,5.6-1.2,7.5-3.3s3-4.8,2.8-7.7l-8.8-142.8
	c-0.3-5.4-4.9-9.7-10.3-9.7H34.2z"/>
<path class="st1" d="M109,100.6H82.6c-12.5,0-23.7-7.7-28.5-19.7L42.8,53.2c-1.4-3.3,0.3-7.2,3.6-8.5c3.3-1.4,7.2,0.3,8.5,3.6
	L66.2,76c2.8,7,9.3,11.5,16.4,11.5H109c7.3,0,13.8-4.7,16.6-11.9L136,48.4c1.3-3.4,5.1-5.1,8.4-3.8c3.4,1.3,5.1,5.1,3.8,8.4
	l-10.4,27.2C133.1,92.6,121.8,100.6,109,100.6z"/>
</svg>
