<?xml version="1.0" encoding="utf-8"?>
<!-- Generator: Adobe Illustrator 23.1.0, SVG Export Plug-In . SVG Version: 6.00 Build 0)  -->
<svg version="1.1" id="图层_1" xmlns="http://www.w3.org/2000/svg" xmlns:xlink="http://www.w3.org/1999/xlink" x="0px" y="0px"
	 viewBox="0 0 200 200" style="enable-background:new 0 0 200 200;" xml:space="preserve">
<style type="text/css">
	.st0{fill:url(#SVGID_1_);}
	.st1{fill:#000019;}
</style>
<linearGradient id="SVGID_1_" gradientUnits="userSpaceOnUse" x1="118.8" y1="338.1575" x2="118.8" y2="172.4575" gradientTransform="matrix(1 0 0 1 0 -138.1575)">
	<stop  offset="0" style="stop-color:#FFFFFF"/>
	<stop  offset="0.5422" style="stop-color:#FBC289"/>
	<stop  offset="1" style="stop-color:#F8902A"/>
</linearGradient>
<path class="st0" d="M118.5,34.6l0.4-0.3l0.4,0.3c1.3,0.9,13.1,9.2,30.8,16.4c17.3,7,33.7,7.8,36.8,7.9h0.5v69.3
	c0,15.2-9.4,33-25.7,48.7c-14.4,13.8-31.6,23.1-42.9,23.1c-5.2,0-12.2-2.2-19.7-6.1c-8.5-4.6-16.3-10.2-23.2-16.9
	c-16.4-15.7-25.7-33.3-25.7-48.7V58.8h0.6c0.7,0,18.2-0.3,36.8-7.9C98.4,46.6,108.7,41,118.5,34.6L118.5,34.6L118.5,34.6z"/>
<path class="st1" d="M95.4,197.1c-8,0-17.4-2.7-27.2-7.7c-9-4.7-18-11.3-26.1-19c-19-18.1-29.9-39.7-29.9-59.1V27.7l19.5-0.3
	c9.4-0.4,18.6-2.5,27.4-6c15-6.1,24.4-12.8,24.5-13L95.4,0l12,8.7c1.1,0.8,10.3,7.1,24.3,12.8c8.7,3.4,17.9,5.4,27.3,6l19.5,0.3
	v83.4c0,10.5-3,21.5-9.1,32.6c-5.5,9.9-12.5,18.9-20.8,26.6c-7.6,7.4-16.4,13.8-25.8,18.8C112.8,194.4,103.4,197.1,95.4,197.1z
	 M24.8,40v71.1c0,16.1,9.5,34.4,26,50.1c7.3,6.9,15.4,12.8,23.3,17s15.2,6.4,21.3,6.4s13.5-2.2,21.5-6.5
	c8.4-4.5,16.2-10.2,23.1-16.8c7.4-6.9,13.6-14.8,18.5-23.6c5-9.1,7.5-18.1,7.5-26.5V40.1l-7.5-0.1c-10.8-0.6-21.3-2.9-31.3-6.8
	C112,27,101.9,20.1,99.9,18.8l0,0l-4.5-3.2l-4.3,3.1c-0.4,0.3-10.7,7.7-27.3,14.5c-10.1,4.1-20.7,6.4-31.5,6.9h-0.2L24.8,40z"/>
<path class="st1" d="M96.6,133.3c-21,0-38.2-17.1-38.2-38.2c0-21,17.1-38.2,38.2-38.2c21,0,38.2,17.1,38.2,38.2
	C134.8,116.2,117.6,133.3,96.6,133.3z M96.6,69c-14.4,0-26.2,11.7-26.2,26.2s11.7,26.2,26.2,26.2s26.2-11.7,26.2-26.2
	S111,69,96.6,69z"/>
<rect x="42.7" y="89.5" class="st1" width="107.9" height="11.3"/>
<rect x="42.7" y="89.5" transform="matrix(4.488860e-11 -1 1 4.488860e-11 1.4429 191.7614)" class="st1" width="107.9" height="11.3"/>
</svg>
