<?xml version="1.0" encoding="utf-8"?>
<!-- Generator: Adobe Illustrator 23.1.0, SVG Export Plug-In . SVG Version: 6.00 Build 0)  -->
<svg version="1.1" id="图层_1" xmlns="http://www.w3.org/2000/svg" xmlns:xlink="http://www.w3.org/1999/xlink" x="0px" y="0px"
	 viewBox="0 0 200 200" style="enable-background:new 0 0 200 200;" xml:space="preserve">
<style type="text/css">
	.st0{fill:url(#SVGID_1_);}
</style>
<linearGradient id="SVGID_1_" gradientUnits="userSpaceOnUse" x1="114.2945" y1="192.8387" x2="114.2945" y2="47.9962">
	<stop  offset="0" style="stop-color:#FFFFFF"/>
	<stop  offset="0.5422" style="stop-color:#FBC289"/>
	<stop  offset="1" style="stop-color:#F8902A"/>
</linearGradient>
<polygon class="st0" points="155.6,48 72,48 31.2,120.4 72,192.8 155.6,192.8 197.4,120.4 "/>
<path d="M93.8,132.5c-2,0-3.9-0.9-5.1-2.4l-28-32.3c-2.5-2.8-2.1-7.2,0.7-9.7c2.8-2.5,7.2-2.1,9.7,0.7l22.6,26.1l37.7-46
	c2.4-2.9,6.7-3.3,9.7-0.9c2.9,2.4,3.3,6.7,0.9,9.7L99.1,130C97.8,131.5,95.9,132.5,93.8,132.5L93.8,132.5z"/>
<path d="M149.9,187.5H50.3L0.5,101.2l49.8-86.3h99.6l49.8,86.3L149.9,187.5z M57.2,175.5H143l42.9-74.3L143,26.9H57.2l-42.9,74.3
	L57.2,175.5z"/>
</svg>
