<?xml version="1.0" standalone="no"?><!DOCTYPE svg PUBLIC "-//W3C//DTD SVG 1.1//EN" "http://www.w3.org/Graphics/SVG/1.1/DTD/svg11.dtd"><svg t="1605166711663" class="icon" viewBox="0 0 1050 1024" version="1.1" xmlns="http://www.w3.org/2000/svg" p-id="34907" width="30.76171875" height="30" xmlns:xlink="http://www.w3.org/1999/xlink"><defs><style type="text/css"></style></defs><path d="M937.728938 722.426374h-825.201465a112.527473 112.527473 0 0 0-112.527473 112.527472v75.018315a112.527473 112.527473 0 0 0 112.527473 112.527473h825.201465a112.527473 112.527473 0 0 0 112.527472-112.527473v-75.018315a112.527473 112.527473 0 0 0-112.527472-112.527472z m37.509157 189.046153a37.509158 37.509158 0 0 1-37.509157 37.509158h-825.201465a37.509158 37.509158 0 0 1-37.509158-37.509158v-75.018315a37.509158 37.509158 0 0 1 37.509158-37.509157h825.201465a37.509158 37.509158 0 0 1 37.509157 37.509157z" p-id="34908" fill="#D5402B"></path><path d="M876.964103 825.201465a49.512088 49.512088 0 1 0 49.512087 49.512088 49.512088 49.512088 0 0 0-49.512087-49.512088zM937.728938 361.588278h-825.201465A112.527473 112.527473 0 0 0 0 474.115751v75.018315a112.527473 112.527473 0 0 0 112.527473 112.527472h825.201465A112.527473 112.527473 0 0 0 1050.25641 550.634432v-75.018315a112.527473 112.527473 0 0 0-112.527472-114.027839z m37.509157 189.046154a37.509158 37.509158 0 0 1-37.509157 37.509158h-825.201465a37.509158 37.509158 0 0 1-37.509158-37.509158v-75.018315a37.509158 37.509158 0 0 1 37.509158-37.509157h825.201465a37.509158 37.509158 0 0 1 37.509157 37.509157z" p-id="34909" fill="#D5402B"></path><path d="M876.964103 462.112821a50.262271 50.262271 0 0 0 0 99.774358 50.262271 50.262271 0 0 0 0-99.774358zM937.728938 0h-825.201465A112.527473 112.527473 0 0 0 0 112.527473v75.018315A112.527473 112.527473 0 0 0 112.527473 300.07326h825.201465A112.527473 112.527473 0 0 0 1050.25641 189.046154v-75.018315A112.527473 112.527473 0 0 0 937.728938 0z m37.509157 189.046154a37.509158 37.509158 0 0 1-37.509157 37.509157h-825.201465a37.509158 37.509158 0 0 1-37.509158-37.509157v-75.018315A37.509158 37.509158 0 0 1 112.527473 75.018315h825.201465a37.509158 37.509158 0 0 1 37.509157 37.509158z" p-id="34910" fill="#D5402B"></path><path d="M876.964103 101.274725a49.512088 49.512088 0 1 0 49.512087 49.512088 49.512088 49.512088 0 0 0-49.512087-49.512088z" p-id="34911" fill="#D5402B"></path></svg>