<svg id="图层_1" data-name="图层 1" xmlns="http://www.w3.org/2000/svg" xmlns:xlink="http://www.w3.org/1999/xlink" viewBox="0 0 159.25 176.5"><defs><style>.cls-1{fill:url(#未命名的渐变_9);}</style><linearGradient id="未命名的渐变_9" x1="97.02" y1="176.5" x2="97.02" y2="23.5" gradientUnits="userSpaceOnUse"><stop offset="0" stop-color="#fff"/><stop offset="0.54" stop-color="#fbc289"/><stop offset="1" stop-color="#f8902a"/></linearGradient></defs><title>活动配置</title><polygon class="cls-1" points="98.49 23.5 35.18 58.49 35.18 139.57 98.49 176.5 157.86 138.51 158.86 58.49 98.49 23.5"/><path d="M956.24,621.75a16.83,16.83,0,0,1-8.39-2.24L888.77,585.4a16.84,16.84,0,0,1-8.4-14.54V502.64a16.85,16.85,0,0,1,8.39-14.54L947.85,454a16.82,16.82,0,0,1,16.78,0l59.09,34.11a16.85,16.85,0,0,1,8.39,14.54v33.24a5.72,5.72,0,1,1-11.44,0V502.64A5.35,5.35,0,0,0,1018,498l-59.09-34.12a5.36,5.36,0,0,0-5.34,0L894.48,498a5.35,5.35,0,0,0-2.67,4.63v68.22a5.35,5.35,0,0,0,2.67,4.63l59.09,34.12a5.36,5.36,0,0,0,5.34,0l31.85-18.39a5.72,5.72,0,0,1,5.72,9.9l-31.85,18.39A16.8,16.8,0,0,1,956.24,621.75Z" transform="translate(-880.37 -451.75)"/><path d="M1033.91,566.77h-9.53v-9.53a5.72,5.72,0,0,0-11.44,0v9.53h-9.53a5.72,5.72,0,0,0,0,11.43h9.53v9.53a5.72,5.72,0,0,0,11.44,0V578.2h9.53a5.72,5.72,0,1,0,0-11.43Z" transform="translate(-880.37 -451.75)"/><path d="M1006.05,509.48a5.73,5.73,0,0,0-7.8-2.13l-41.56,23.74-.3,0-42.18-23.73a5.72,5.72,0,1,0-5.61,10l41.92,23.59V586A5.72,5.72,0,0,0,962,586V541.25l42-24A5.72,5.72,0,0,0,1006.05,509.48Z" transform="translate(-880.37 -451.75)"/></svg>