<?xml version="1.0" encoding="utf-8"?>
<!-- Generator: Adobe Illustrator 23.1.0, SVG Export Plug-In . SVG Version: 6.00 Build 0)  -->
<svg version="1.1" id="图层_1" xmlns="http://www.w3.org/2000/svg" xmlns:xlink="http://www.w3.org/1999/xlink" x="0px" y="0px"
	 viewBox="0 0 200 200" style="enable-background:new 0 0 200 200;" xml:space="preserve">
<style type="text/css">
	.st0{fill:url(#SVGID_1_);}
	.st1{fill:none;stroke:#000000;stroke-width:12;stroke-miterlimit:10;}
</style>
<linearGradient id="SVGID_1_" gradientUnits="userSpaceOnUse" x1="119.7404" y1="193.9032" x2="119.7404" y2="48.1378">
	<stop  offset="0" style="stop-color:#FFFFFF"/>
	<stop  offset="0.5422" style="stop-color:#FBC289"/>
	<stop  offset="1" style="stop-color:#F8902A"/>
</linearGradient>
<path class="st0" d="M178.6,193.9H60.9V101c0-29.2,23.7-52.9,52.9-52.9h12c29.2,0,52.9,23.7,52.9,52.9V193.9z"/>
<path class="st1" d="M67.1,27.5h67.7c20.3,0,36.8,16.5,36.8,36.8v0c0,20.3-16.5,36.8-36.8,36.8H57.1c-20.3,0-36.8,16.5-36.8,36.8v0
	c0,20.3,16.5,36.8,36.8,36.8h69.9"/>
<circle class="st1" cx="45.8" cy="27.1" r="21.1"/>
<circle class="st1" cx="149.3" cy="172.7" r="21.1"/>
</svg>
