<?xml version="1.0" encoding="utf-8"?>
<!-- Generator: Adobe Illustrator 23.1.0, SVG Export Plug-In . SVG Version: 6.00 Build 0)  -->
<svg version="1.1" id="图层_1" xmlns="http://www.w3.org/2000/svg" xmlns:xlink="http://www.w3.org/1999/xlink" x="0px" y="0px"
	 viewBox="0 0 200 200" style="enable-background:new 0 0 200 200;" xml:space="preserve">
<style type="text/css">
	.st0{fill:url(#SVGID_1_);}
	.st1{fill:#000019;}
</style>
<linearGradient id="SVGID_1_" gradientUnits="userSpaceOnUse" x1="119.9839" y1="10.1661" x2="119.9839" y2="165.9075" gradientTransform="matrix(1 0 0 -1 0 202.1575)">
	<stop  offset="0" style="stop-color:#FFFFFF"/>
	<stop  offset="0.5422" style="stop-color:#FBC289"/>
	<stop  offset="1" style="stop-color:#F8902A"/>
</linearGradient>
<rect x="44" y="36.3" class="st0" width="152" height="155.7"/>
<g>
	<polygon class="st1" points="196.5,74.5 184.5,74.5 184.5,17.5 127.5,17.5 127.5,5.5 196.5,5.5 	"/>
	<polygon class="st1" points="196.5,198 127.5,198 127.5,186 184.5,186 184.5,129 196.5,129 	"/>
	<polygon class="st1" points="16.1,74.5 4.1,74.5 4.1,5.5 73.1,5.5 73.1,17.5 16.1,17.5 	"/>
	<polygon class="st1" points="73.1,198 4.1,198 4.1,129 16.1,129 16.1,186 73.1,186 	"/>
</g>
<path class="st1" d="M96.1,137.8c-26.6,0-48.2-21.6-48.2-48.2s21.6-48.2,48.2-48.2s48.2,21.6,48.2,48.2S122.7,137.8,96.1,137.8z
	 M96.1,53.5C76.2,53.5,60,69.7,60,89.7c0,19.9,16.2,36.2,36.2,36.2c19.9,0,36.2-16.2,36.2-36.2C132.3,69.7,116.1,53.5,96.1,53.5z"/>
<path class="st1" d="M152.5,153.5L152.5,153.5c-2.8,2.6-7.1,2.4-9.7-0.4L122.2,131c-2.6-2.8-2.4-7.1,0.4-9.7l0,0
	c2.8-2.6,7.1-2.4,9.7,0.4l20.6,22.1C155.4,146.6,155.3,150.9,152.5,153.5z"/>
</svg>
