<?xml version="1.0" encoding="utf-8"?>
<!-- Generator: Adobe Illustrator 23.1.0, SVG Export Plug-In . SVG Version: 6.00 Build 0)  -->
<svg version="1.1" id="图层_1" xmlns="http://www.w3.org/2000/svg" xmlns:xlink="http://www.w3.org/1999/xlink" x="0px" y="0px"
	 viewBox="0 0 200 200" style="enable-background:new 0 0 200 200;" xml:space="preserve">
<style type="text/css">
	.st0{fill:url(#SVGID_1_);}
	.st1{fill:#07091E;}
</style>
<linearGradient id="SVGID_1_" gradientUnits="userSpaceOnUse" x1="130.8901" y1="10.0555" x2="130.8901" y2="176.0823" gradientTransform="matrix(1 0 0 -1 0 202)">
	<stop  offset="0" style="stop-color:#FFFFFF"/>
	<stop  offset="0.5422" style="stop-color:#FBC289"/>
	<stop  offset="1" style="stop-color:#F8902A"/>
</linearGradient>
<path class="st0" d="M199.9,191.9H61.8V95c0-38.2,30.9-69.1,69.1-69.1l0,0c38.2,0,69.1,30.9,69.1,69.1v96.9H199.9z"/>
<path class="st1" d="M171.8,191.5H22.7v-112c0-41.1,33.5-74.6,74.6-74.6s74.6,33.5,74.6,74.6V191.5z M36.6,177.5h121.2V79.4
	c0-33.4-27.2-60.6-60.6-60.6S36.6,46,36.6,79.4C36.6,79.4,36.6,177.5,36.6,177.5z"/>
<rect y="178" class="st1" width="194.5" height="14"/>
<rect x="88.5" y="50.6" class="st1" width="17.5" height="59.5"/>
<circle class="st1" cx="97.3" cy="138.7" r="12.8"/>
</svg>
