<svg id="图层_1" data-name="图层 1" xmlns="http://www.w3.org/2000/svg" viewBox="0 0 161.58 143.22"><defs><style>.cls-1{fill:#f4831f;}.cls-2{fill:#000019;}</style></defs><title>相关告警</title><path class="cls-1" d="M117.41,62.5l-7,22.93h12.89l-20.63,46.28h-7l7.82-29.29H89.13L101.06,62.5Z" transform="translate(-26.64 -12.19)"/><path class="cls-2" d="M175.81,155.41H39.05a12.39,12.39,0,0,1-10.73-18.58L96.7,18.39a12.38,12.38,0,0,1,21.46,0l68.38,118.44a12.39,12.39,0,0,1-10.73,18.58Zm-68.71-131L38.71,142.83a.39.39,0,0,0,.34.58H175.81a.34.34,0,0,0,.34-.19.35.35,0,0,0,0-.39L107.77,24.39a.34.34,0,0,0-.34-.2.33.33,0,0,0-.33.2Z" transform="translate(-26.64 -12.19)"/></svg>