<?xml version="1.0" encoding="utf-8"?>
<!-- Generator: Adobe Illustrator 23.1.0, SVG Export Plug-In . SVG Version: 6.00 Build 0)  -->
<svg version="1.1" id="图层_1" xmlns="http://www.w3.org/2000/svg" xmlns:xlink="http://www.w3.org/1999/xlink" x="0px" y="0px"
	 viewBox="0 0 200 200" style="enable-background:new 0 0 200 200;" xml:space="preserve">
<style type="text/css">
	.st0{fill:url(#SVGID_1_);}
</style>
<linearGradient id="SVGID_1_" gradientUnits="userSpaceOnUse" x1="113.3536" y1="197.903" x2="113.3536" y2="11.0535">
	<stop  offset="0" style="stop-color:#FFFFFF"/>
	<stop  offset="0.5422" style="stop-color:#FBC289"/>
	<stop  offset="1" style="stop-color:#F8902A"/>
</linearGradient>
<path class="st0" d="M112.6,194.6l-82.3-82.3c-4.4-4.4-4.4-11.4,0-15.8l82.3-82.3c4.4-4.4,11.4-4.4,15.8,0l58,58
	c17.7,17.7,17.7,46.5,0,64.3l-58,58C124,199,116.9,199,112.6,194.6z"/>
<path d="M83.1,98.1H2V28.6c0-6.4,5.2-11.7,11.7-11.7h69.5V98.1z M14,86.1h57.2V28.9H14V86.1z"/>
<path d="M83.1,194.2H13.6C7.2,194.2,2,189,2,182.6v-69.5h81.2V194.2z M14,182.2h57.2v-57.2H14V182.2z"/>
<path d="M170.8,194.2h-69.5v-81.2h81.2v69.5C182.5,189,177.2,194.2,170.8,194.2z M113.3,182.2h57.2v-57.2h-57.2V182.2z"/>
<path d="M141.9,104.6c-4.6,0-8.9-1.8-12.1-5L96.6,66.4c-3.2-3.2-5-7.5-5-12.1c0-4.6,1.8-8.9,5-12.1L129.8,9c3.2-3.2,7.5-5,12.1-5
	c4.6,0,8.9,1.8,12.1,5l33.1,33.1c3.2,3.2,5,7.5,5,12.1c0,4.6-1.8,8.9-5,12.1L154,99.6C150.8,102.8,146.5,104.6,141.9,104.6z
	 M141.9,16c-1.4,0-2.7,0.5-3.6,1.5l-33.1,33.1c-1,1-1.5,2.3-1.5,3.6s0.5,2.7,1.5,3.6l33.1,33.1c1,1,2.3,1.5,3.6,1.5s2.7-0.5,3.6-1.5
	l33.1-33.1c1-1,1.5-2.3,1.5-3.6s-0.5-2.7-1.5-3.6l-33.1-33.1C144.6,16.5,143.3,16,141.9,16z"/>
</svg>
