<?xml version="1.0" encoding="utf-8"?>
<!-- Generator: Adobe Illustrator 23.1.0, SVG Export Plug-In . SVG Version: 6.00 Build 0)  -->
<svg version="1.1" id="图层_1" xmlns="http://www.w3.org/2000/svg" xmlns:xlink="http://www.w3.org/1999/xlink" x="0px" y="0px"
	 viewBox="0 0 200 200" style="enable-background:new 0 0 200 200;" xml:space="preserve">
<style type="text/css">
	.st0{fill:url(#SVGID_1_);}
</style>
<linearGradient id="SVGID_1_" gradientUnits="userSpaceOnUse" x1="114.8778" y1="197.4839" x2="114.8778" y2="39.819">
	<stop  offset="0" style="stop-color:#FFFFFF"/>
	<stop  offset="0.5422" style="stop-color:#FBC289"/>
	<stop  offset="1" style="stop-color:#F8902A"/>
</linearGradient>
<rect x="51.4" y="39.8" class="st0" width="126.9" height="157.7"/>
<path d="M89.2,199.3H20.7c-9.7,0-17.7-7.9-17.7-17.7V19.1C3,9.4,10.9,1.5,20.7,1.5h125.8c9.7,0,17.7,7.9,17.7,17.7v63.1h-12V19.1
	c0-3.1-2.5-5.7-5.7-5.7H20.7c-3.1,0-5.7,2.5-5.7,5.7v162.5c0,3.1,2.5,5.7,5.7,5.7h68.6V199.3z"/>
<path d="M168.3,198.7h-59.7l-29.8-51.7l29.8-51.7h59.7l29.8,51.7L168.3,198.7z M115.5,186.7h45.8l22.9-39.7l-22.9-39.7h-45.8
	l-22.9,39.7L115.5,186.7z"/>
<rect x="33.9" y="47" width="89.7" height="12"/>
<rect x="33.5" y="80.9" width="55.8" height="12"/>
<circle cx="138.5" cy="145.5" r="16.1"/>
</svg>
