<?xml version="1.0" encoding="utf-8"?>
<!-- Generator: Adobe Illustrator 23.1.0, SVG Export Plug-In . SVG Version: 6.00 Build 0)  -->
<svg version="1.1" id="图层_1" xmlns="http://www.w3.org/2000/svg" xmlns:xlink="http://www.w3.org/1999/xlink" x="0px" y="0px"
	 viewBox="0 0 200 200" style="enable-background:new 0 0 200 200;" xml:space="preserve">
<style type="text/css">
	.st0{fill:url(#SVGID_1_);}
	.st1{fill:#000019;}
</style>
<linearGradient id="SVGID_1_" gradientUnits="userSpaceOnUse" x1="132.8019" y1="27.5325" x2="132.8019" y2="161.9287" gradientTransform="matrix(1 0 0 -1 0 202)">
	<stop  offset="0" style="stop-color:#FFFFFF"/>
	<stop  offset="0.5422" style="stop-color:#FBC289"/>
	<stop  offset="1" style="stop-color:#F8902A"/>
</linearGradient>
<circle class="st0" cx="132.8" cy="107.3" r="67.2"/>
<path class="st1" d="M107.2,71.6l-8.3,27h15.2l-24.3,54.7h-8.1l9.2-34.6H73.8l14.1-47.1C87.8,71.6,107.2,71.6,107.2,71.6z"/>
<path class="st1" d="M176.1,181.3H14.6c-5.3,0-10-2.7-12.6-7.3c-2.6-4.6-2.6-10,0-14.6L82.7,19.5c2.6-4.6,7.3-7.3,12.6-7.3
	s10,2.7,12.6,7.3l80.8,139.8c2.6,4.6,2.6,10,0,14.6C186.2,178.6,181.5,181.3,176.1,181.3z M95,26.6L14.2,166.4c0,0.1-0.1,0.2,0,0.5
	c0.1,0.2,0.2,0.2,0.4,0.2h161.6c0.1,0,0.2,0,0.4-0.2s0-0.4,0-0.5L95.8,26.6c0-0.1-0.1-0.2-0.4-0.2C95.1,26.4,95,26.5,95,26.6
	L95,26.6z"/>
</svg>
