<?xml version="1.0" standalone="no"?><!DOCTYPE svg PUBLIC "-//W3C//DTD SVG 1.1//EN" "http://www.w3.org/Graphics/SVG/1.1/DTD/svg11.dtd"><svg t="1605166769759" class="icon" viewBox="0 0 1024 1024" version="1.1" xmlns="http://www.w3.org/2000/svg" p-id="35753" width="30" height="30" xmlns:xlink="http://www.w3.org/1999/xlink"><defs><style type="text/css"></style></defs><path d="M897.347368 839.98797H651.741353a143.97594 143.97594 0 0 0-101.630075-101.630075v-40.806015h340.306767a115.488722 115.488722 0 0 0 115.488722-115.488722V115.488722a115.488722 115.488722 0 0 0-115.488722-115.488722H133.581955A115.488722 115.488722 0 0 0 18.093233 115.488722v466.574436a115.488722 115.488722 0 0 0 115.488722 115.488722h339.536842v40.806015a147.055639 147.055639 0 0 0-101.630075 101.630075h-246.37594a38.496241 38.496241 0 0 0 0 76.992481h246.37594a145.515789 145.515789 0 0 0 280.252631 0h245.606015a38.496241 38.496241 0 0 0 0-76.992481zM133.581955 76.992481h756.83609a38.496241 38.496241 0 0 1 38.496241 38.496241v316.439098H95.085714V115.488722a38.496241 38.496241 0 0 1 38.496241-38.496241zM95.085714 582.063158v-73.142857h833.828572v73.142857a39.266165 39.266165 0 0 1-38.496241 38.49624H133.581955a38.496241 38.496241 0 0 1-38.496241-38.49624z m416.529324 364.944361a69.293233 69.293233 0 0 1 0-137.816542 69.293233 69.293233 0 1 1 0 137.816542z" p-id="35754" fill="#D5402B"></path></svg>