<?xml version="1.0" encoding="utf-8"?>
<!-- Generator: Adobe Illustrator 23.1.0, SVG Export Plug-In . SVG Version: 6.00 Build 0)  -->
<svg version="1.1" id="图层_1" xmlns="http://www.w3.org/2000/svg" xmlns:xlink="http://www.w3.org/1999/xlink" x="0px" y="0px"
	 viewBox="0 0 200 200" style="enable-background:new 0 0 200 200;" xml:space="preserve">
<style type="text/css">
	.st0{fill:url(#SVGID_1_);}
	.st1{fill:#07091E;}
</style>
<linearGradient id="SVGID_1_" gradientUnits="userSpaceOnUse" x1="120.2595" y1="2.287" x2="120.2595" y2="169.2169" gradientTransform="matrix(1 0 0 -1 0 202)">
	<stop  offset="0" style="stop-color:#FFFFFF"/>
	<stop  offset="0.5422" style="stop-color:#FBC289"/>
	<stop  offset="1" style="stop-color:#F8902A"/>
</linearGradient>
<path class="st0" d="M149.9,199.7H44.5v-121c0-25.5,20.7-46,46-46H196v121C196.1,179,175.4,199.7,149.9,199.7z"/>
<rect x="44.4" y="63.1" class="st1" width="89.6" height="15.1"/>
<rect x="44.5" y="109.8" class="st1" width="67.6" height="15.1"/>
<path class="st1" d="M127,199.1H3.4V58.3C3.4,26.1,29.6,0,61.7,0h123.7v140.8C185.4,173,159.3,199.1,127,199.1z M18.5,184H127
	c23.9,0,43.3-19.3,43.3-43.2V15.1H61.7c-23.7,0-43.2,19.3-43.2,43.2C18.5,58.3,18.5,184,18.5,184z"/>
</svg>
