<?xml version="1.0" encoding="utf-8"?>
<!-- Generator: Adobe Illustrator 23.1.0, SVG Export Plug-In . SVG Version: 6.00 Build 0)  -->
<svg version="1.1" id="图层_1" xmlns="http://www.w3.org/2000/svg" xmlns:xlink="http://www.w3.org/1999/xlink" x="0px" y="0px"
	 viewBox="0 0 200 200" style="enable-background:new 0 0 200 200;" xml:space="preserve">
<style type="text/css">
	.st0{fill:url(#SVGID_1_);}
</style>
<linearGradient id="SVGID_1_" gradientUnits="userSpaceOnUse" x1="120.215" y1="17.5025" x2="120.215" y2="173.6531" gradientTransform="matrix(1 0 0 -1 0 202)">
	<stop  offset="0" style="stop-color:#FFFFFF"/>
	<stop  offset="0.5422" style="stop-color:#FBC289"/>
	<stop  offset="1" style="stop-color:#F8902A"/>
</linearGradient>
<circle class="st0" cx="120.2" cy="106.4" r="78.1"/>
<path d="M97,197.1c-52.8,0-95.7-42.9-95.7-95.7C1.3,48.5,44.2,5.6,97,5.6s95.7,42.9,95.7,95.7C192.7,154.1,149.8,197.1,97,197.1z
	 M97,17.6c-46.2,0-83.7,37.6-83.7,83.7s37.6,83.7,83.7,83.7c46.2,0,83.7-37.6,83.7-83.7S143.2,17.6,97,17.6z"/>
<path d="M122.8,144.4H71.2c-9.5,0-17.3-7.8-17.3-17.3V75.6c0-9.5,7.8-17.3,17.3-17.3h51.5c9.5,0,17.3,7.8,17.3,17.3v51.5
	C140.1,136.6,132.3,144.4,122.8,144.4z M71.2,70.3c-2.9,0-5.3,2.4-5.3,5.3v51.5c0,2.9,2.4,5.3,5.3,5.3h51.5c3,0,5.3-2.3,5.3-5.3
	V75.6c0-2.9-2.4-5.3-5.3-5.3H71.2z"/>
</svg>
