<?xml version="1.0" encoding="utf-8"?>
<!-- Generator: Adobe Illustrator 23.1.0, SVG Export Plug-In . SVG Version: 6.00 Build 0)  -->
<svg version="1.1" id="图层_1" xmlns="http://www.w3.org/2000/svg" xmlns:xlink="http://www.w3.org/1999/xlink" x="0px" y="0px"
	 viewBox="0 0 200 200" style="enable-background:new 0 0 200 200;" xml:space="preserve">
<style type="text/css">
	.st0{fill:url(#SVGID_1_);}
	.st1{fill:#000019;}
</style>
<linearGradient id="SVGID_1_" gradientUnits="userSpaceOnUse" x1="129.6338" y1="191.2794" x2="129.6338" y2="30.5296">
	<stop  offset="0" style="stop-color:#FFFFFF"/>
	<stop  offset="0.5422" style="stop-color:#FBC289"/>
	<stop  offset="1" style="stop-color:#F8902A"/>
</linearGradient>
<path class="st0" d="M184.1,147l-76.8,41.6c-14.5,7.9-32.2-2.7-32.2-19.2V67L135,34.6c22.2-12,49.1,4.1,49.1,29.3V147z"/>
<path class="st1" d="M100,107.5c-1.9,0-3.7-0.5-5.4-1.4L15.8,63.5c-3.8-2-6.1-6-6-10.3c0.1-4.3,2.5-8.1,6.4-10L94.9,4.4
	c3.2-1.6,6.9-1.6,10.1,0l78.7,38.8c3.8,1.9,6.3,5.7,6.4,10s-2.2,8.2-6,10.3l-78.7,42.6C103.7,107,101.8,107.5,100,107.5z M22.5,53.5
	L100,95.4l77.5-41.9L100,15.3L22.5,53.5z"/>
<path class="st1" d="M100,148.8c-3.5,0-7-0.9-10.2-2.6l-83.2-45l5.7-10.6l83.2,45c2.8,1.5,6.2,1.5,9,0l83.2-45l5.7,10.6l-83.2,45
	C107,147.9,103.5,148.8,100,148.8z"/>
<path class="st1" d="M100,193.5c-3.5,0-7-0.9-10.2-2.6l-83.2-45l5.7-10.6l83.2,45c2.8,1.5,6.2,1.5,9,0l83.2-45l5.7,10.6l-83.2,45
	C107,192.6,103.5,193.5,100,193.5z"/>
</svg>
