<?xml version="1.0" encoding="utf-8"?>
<!-- Generator: Adobe Illustrator 23.1.0, SVG Export Plug-In . SVG Version: 6.00 Build 0)  -->
<svg version="1.1" id="图层_1" xmlns="http://www.w3.org/2000/svg" xmlns:xlink="http://www.w3.org/1999/xlink" x="0px" y="0px"
	 viewBox="0 0 200 200" style="enable-background:new 0 0 200 200;" xml:space="preserve">
<style type="text/css">
	.st0{fill:url(#SVGID_1_);}
	.st1{fill:#000019;}
</style>
<linearGradient id="SVGID_1_" gradientUnits="userSpaceOnUse" x1="116.6379" y1="30.5542" x2="116.6379" y2="147.3073" gradientTransform="matrix(1 0 0 -1 0 202)">
	<stop  offset="0" style="stop-color:#FFFFFF"/>
	<stop  offset="0.5422" style="stop-color:#FBC289"/>
	<stop  offset="1" style="stop-color:#F8902A"/>
</linearGradient>
<rect x="33.3" y="54.7" class="st0" width="166.7" height="116.8"/>
<path class="st1" d="M170.4,174.9H11.5c-6.3,0-11.5-5.2-11.5-11.5V37.1c0-6.3,5.2-11.5,11.5-11.5h158.9c6.3,0,11.5,5.2,11.5,11.5
	v126.3C181.9,169.7,176.7,174.9,170.4,174.9z M13.8,161.1h154.3V39.4H13.8C13.8,39.4,13.8,161.1,13.8,161.1z"/>
<polygon class="st1" points="30.4,127.9 21.9,117.1 69.2,80 103.5,104.4 142.4,65.3 152.2,75 105,122.5 69.5,97.3 "/>
</svg>
