<?xml version="1.0" encoding="utf-8"?>
<!-- Generator: Adobe Illustrator 23.1.0, SVG Export Plug-In . SVG Version: 6.00 Build 0)  -->
<svg version="1.1" id="图层_1" xmlns="http://www.w3.org/2000/svg" xmlns:xlink="http://www.w3.org/1999/xlink" x="0px" y="0px"
	 viewBox="0 0 200 200" style="enable-background:new 0 0 200 200;" xml:space="preserve">
<style type="text/css">
	.st0{fill:url(#SVGID_1_);}
	.st1{fill:#000019;}
</style>
<linearGradient id="SVGID_1_" gradientUnits="userSpaceOnUse" x1="115.9686" y1="195.1782" x2="115.9686" y2="37.931">
	<stop  offset="0" style="stop-color:#FFFFFF"/>
	<stop  offset="0.5422" style="stop-color:#FBC289"/>
	<stop  offset="1" style="stop-color:#F8902A"/>
</linearGradient>
<circle class="st0" cx="116" cy="116.6" r="78.6"/>
<path class="st1" d="M92.4,190.1c-49.5,0-89.7-40.3-89.7-89.7c0-49.5,40.3-89.7,89.7-89.7c21.7,0,42.7,7.9,59,22.2
	c16.2,14.2,26.8,33.6,29.8,54.8l-11.9,1.7c-5.4-38-38.5-66.6-77-66.6c-42.9,0-77.7,34.9-77.7,77.7c0,42.9,34.9,77.7,77.7,77.7
	c6.2,0,12.3-0.7,18.2-2.2l2.8,11.7C106.5,189.3,99.5,190.1,92.4,190.1z"/>
<polygon class="st1" points="55.2,124.1 50.2,113.3 86.4,96.5 86.4,33.8 98.4,33.8 98.4,104.2 "/>
<polygon class="st1" points="180,112.9 155.4,137.5 130.8,112.9 122.9,120.8 147.6,145.4 122.9,170 130.8,177.9 155.4,153.3 
	180,177.9 187.9,170 163.3,145.4 187.9,120.8 "/>
</svg>
