<?xml version="1.0" encoding="utf-8"?>
<!-- Generator: Adobe Illustrator 23.1.0, SVG Export Plug-In . SVG Version: 6.00 Build 0)  -->
<svg version="1.1" id="图层_1" xmlns="http://www.w3.org/2000/svg" xmlns:xlink="http://www.w3.org/1999/xlink" x="0px" y="0px"
	 viewBox="0 0 200 200" style="enable-background:new 0 0 200 200;" xml:space="preserve">
<style type="text/css">
	.st0{fill:url(#SVGID_1_);}
	.st1{fill:#000019;}
</style>
<linearGradient id="SVGID_1_" gradientUnits="userSpaceOnUse" x1="123.7748" y1="2" x2="123.7748" y2="167.7441" gradientTransform="matrix(1 0 0 -1 0 202)">
	<stop  offset="0" style="stop-color:#FFFFFF"/>
	<stop  offset="0.5422" style="stop-color:#FBC289"/>
	<stop  offset="1" style="stop-color:#F8902A"/>
</linearGradient>
<path class="st0" d="M123.5,34.6l0.4-0.3l0.4,0.3c1.3,0.9,13.1,9.2,30.8,16.4c17.3,7,33.7,7.8,36.8,7.9h0.5v69.3
	c0,15.2-9.4,33-25.7,48.7c-14.4,13.8-31.6,23.1-42.9,23.1c-5.2,0-12.2-2.2-19.7-6.1c-8.5-4.6-16.3-10.2-23.2-16.9
	c-16.4-15.7-25.7-33.3-25.7-48.7V58.8h0.6c0.7,0,18.2-0.3,36.8-7.9C103.4,46.6,113.7,41,123.5,34.6L123.5,34.6L123.5,34.6z"/>
<path class="st1" d="M100.4,197.1c-8,0-17.4-2.7-27.2-7.7c-9-4.7-18-11.3-26.1-19c-19-18.1-29.9-39.7-29.9-59.1V27.7l19.5-0.3
	c9.4-0.4,18.6-2.5,27.4-6c15-6.1,24.4-12.8,24.5-13L100.4,0l12,8.7c1.1,0.8,10.3,7.1,24.3,12.8c8.7,3.4,17.9,5.4,27.3,6l19.5,0.3
	v83.4c0,10.5-3,21.5-9.1,32.6c-5.5,9.9-12.5,18.9-20.8,26.6c-7.6,7.4-16.4,13.8-25.8,18.8C117.8,194.4,108.4,197.1,100.4,197.1z
	 M29.8,40v71.1c0,16.1,9.5,34.4,26,50.1c7.3,6.9,15.4,12.8,23.3,17c7.9,4.2,15.2,6.4,21.3,6.4c6.1,0,13.5-2.2,21.5-6.5
	c8.4-4.5,16.2-10.2,23.1-16.8c7.4-6.9,13.6-14.8,18.5-23.6c5-9.1,7.5-18.1,7.5-26.5V40.1l-7.5-0.1c-10.8-0.6-21.3-2.9-31.3-6.8
	c-15.2-6.2-25.3-13.1-27.3-14.4l0,0l-4.5-3.2l-4.3,3.1c-0.4,0.3-10.7,7.7-27.3,14.5c-10.1,4.1-20.7,6.4-31.5,6.9h-0.2L29.8,40z"/>
<path class="st1" d="M141.4,70.1c-2.6-2.5-6.7-2.5-9.3,0l-44.6,44.6l-19-19c-2.6-2.5-6.7-2.5-9.3,0c-2.5,2.6-2.5,6.7,0,9.2
	l23.7,23.7c2.6,2.5,6.7,2.5,9.3,0l49.3-49.3C143.9,76.8,143.9,72.6,141.4,70.1L141.4,70.1z"/>
</svg>
