<svg id="图层_1" data-name="图层 1" xmlns="http://www.w3.org/2000/svg" xmlns:xlink="http://www.w3.org/1999/xlink" viewBox="0 0 170 144.5"><defs><style>.cls-1{fill:url(#未命名的渐变_13);}.cls-2{fill:#07091e;}.cls-3{fill:#333;}</style><linearGradient id="未命名的渐变_13" x1="104.66" y1="111" x2="104.66" gradientUnits="userSpaceOnUse"><stop offset="0" stop-color="#fff"/><stop offset="0.54" stop-color="#fbc289"/><stop offset="1" stop-color="#f8902a"/></linearGradient></defs><title>运营概览</title><rect class="cls-1" x="53.66" width="102" height="111"/><path class="cls-2" d="M1039.46,579h-1.85V479.21h1.85a5.55,5.55,0,0,0,0-11.09H880.54a5.55,5.55,0,0,0,0,11.09h1.85V579h-1.85a5.55,5.55,0,0,0,0,11.09h72.07v11.08H939.67a5.55,5.55,0,0,0,0,11.09h37a5.55,5.55,0,0,0,0-11.09H963.69V590.08h75.77a5.55,5.55,0,0,0,0-11.09Zm-12.94,0h-133V479.21h133Z" transform="translate(-875 -467.75)"/><path class="cls-3" d="M1000.73,504.23" transform="translate(-875 -467.75)"/><path class="cls-2" d="M919.66,557.75a6,6,0,0,1-4.24-10.24l29-29a6,6,0,0,1,8.48,0l13.76,13.76,27.76-27.76a6,6,0,0,1,8.48,8.48l-32,32a6,6,0,0,1-8.48,0l-13.76-13.75L923.9,556A5.93,5.93,0,0,1,919.66,557.75Z" transform="translate(-875 -467.75)"/></svg>