<?xml version="1.0" encoding="utf-8"?>
<!-- Generator: Adobe Illustrator 23.1.0, SVG Export Plug-In . SVG Version: 6.00 Build 0)  -->
<svg version="1.1" id="图层_1" xmlns="http://www.w3.org/2000/svg" xmlns:xlink="http://www.w3.org/1999/xlink" x="0px" y="0px"
	 viewBox="0 0 200 200" style="enable-background:new 0 0 200 200;" xml:space="preserve">
<style type="text/css">
	.st0{fill:url(#SVGID_1_);}
	.st1{fill:#000019;}
</style>
<linearGradient id="SVGID_1_" gradientUnits="userSpaceOnUse" x1="118.9944" y1="34.4193" x2="118.9944" y2="164.5248" gradientTransform="matrix(1 0 0 -1 0 202)">
	<stop  offset="0" style="stop-color:#FFFFFF"/>
	<stop  offset="0.5422" style="stop-color:#FBC289"/>
	<stop  offset="1" style="stop-color:#F8902A"/>
</linearGradient>
<rect x="38" y="37.5" class="st0" width="162" height="130.1"/>
<path class="st1" d="M180,155.8H15.5c-8.6,0-15.5-7-15.5-15.5V32.4c0-8.6,7-15.5,15.5-15.5H180c8.6,0,15.5,7,15.5,15.5v107.8
	C195.7,148.8,188.6,155.8,180,155.8z M15.5,31.8c-0.4,0-0.6,0.2-0.6,0.6v107.8c0,0.4,0.2,0.6,0.6,0.6H180c0.4,0,0.6-0.2,0.6-0.6
	V32.4c0-0.4-0.2-0.6-0.6-0.6H15.5z"/>
<rect x="46.6" y="167.6" class="st1" width="101.9" height="15.4"/>
<path class="st1" d="M90,120c-2.1,0-4.1-0.9-5.5-2.4L55.7,86.4l10.9-10.1l23.2,25.1l45.4-53.8l11.4,9.6l-50.9,60.2
	c-1.4,1.6-3.4,2.6-5.5,2.6C90.1,120,90.1,120,90,120z"/>
</svg>
