<?xml version="1.0" encoding="utf-8"?>
<!-- Generator: Adobe Illustrator 23.1.0, SVG Export Plug-In . SVG Version: 6.00 Build 0)  -->
<svg version="1.1" id="图层_1" xmlns="http://www.w3.org/2000/svg" xmlns:xlink="http://www.w3.org/1999/xlink" x="0px" y="0px"
	 viewBox="0 0 200 200" style="enable-background:new 0 0 200 200;" xml:space="preserve">
<style type="text/css">
	.st0{fill:url(#SVGID_1_);}
	.st1{fill:#000019;}
</style>
<linearGradient id="SVGID_1_" gradientUnits="userSpaceOnUse" x1="122.3501" y1="12.6575" x2="122.3501" y2="169.1575" gradientTransform="matrix(1 0 0 -1 0 202.1575)">
	<stop  offset="0" style="stop-color:#FFFFFF"/>
	<stop  offset="0.5422" style="stop-color:#FBC289"/>
	<stop  offset="1" style="stop-color:#F8902A"/>
</linearGradient>
<path class="st0" d="M108.2,189.5H54.5V33h135.7v74.5C190.3,152.8,153.5,189.5,108.2,189.5z"/>
<polygon class="st1" points="110.4,187.6 15.7,187.6 15.7,9.9 162.9,9.9 162.9,108.6 150.9,108.6 150.9,21.9 27.7,21.9 27.7,175.6 
	110.4,175.6 "/>
<rect x="47" y="43.4" class="st1" width="83.1" height="11.3"/>
<rect x="47" y="76.4" class="st1" width="70.6" height="11.3"/>
<rect x="47" y="111.4" class="st1" width="38.9" height="11.3"/>
<path class="st1" d="M182.8,134.4c0-0.8-0.2-1.6-0.6-2.3l-6.3-10.9c-1.3-2.2-4.1-3-6.3-1.7s-3,4.1-1.7,6.3l2.7,4.6h-50.6
	c-3.6,0-6.7,2.5-6.7,5.7c0,3.2,3.1,5.7,6.7,5.7h56.5c3.8,0,6.7-2.6,6.7-5.7C183.1,135.5,183,134.9,182.8,134.4z"/>
<path class="st1" d="M113.4,157.2c0,0.8,0.2,1.6,0.6,2.3l6.3,10.9c1.3,2.2,4.1,3,6.3,1.7s3-4.1,1.7-6.3l-2.7-4.6h50.6
	c3.6,0,6.7-2.5,6.7-5.7c0-3.2-3.1-5.7-6.7-5.7h-56.5c-3.8,0-6.7,2.6-6.7,5.7C113.1,156.1,113.2,156.7,113.4,157.2z"/>
</svg>
