<?xml version="1.0" encoding="utf-8"?>
<!-- Generator: Adobe Illustrator 23.1.0, SVG Export Plug-In . SVG Version: 6.00 Build 0)  -->
<svg version="1.1" id="图层_1" xmlns="http://www.w3.org/2000/svg" xmlns:xlink="http://www.w3.org/1999/xlink" x="0px" y="0px"
	 viewBox="0 0 200 200" style="enable-background:new 0 0 200 200;" xml:space="preserve">
<style type="text/css">
	.st0{fill:url(#SVGID_1_);}
	.st1{fill:#000019;}
</style>
<linearGradient id="SVGID_1_" gradientUnits="userSpaceOnUse" x1="122.4194" y1="189.5484" x2="122.4194" y2="33.0284">
	<stop  offset="0" style="stop-color:#FFFFFF"/>
	<stop  offset="0.5422" style="stop-color:#FBC289"/>
	<stop  offset="1" style="stop-color:#F8902A"/>
</linearGradient>
<path class="st0" d="M108.2,189.5H54.5V33h135.7v74.5C190.3,152.8,153.5,189.5,108.2,189.5z"/>
<polygon class="st1" points="110.4,187.6 15.7,187.6 15.7,9.9 162.9,9.9 162.9,84.6 150.9,84.6 150.9,21.9 27.7,21.9 27.7,175.6 
	110.4,175.6 "/>
<rect x="47" y="43.4" class="st1" width="83.1" height="11.3"/>
<rect x="47" y="76.4" class="st1" width="70.6" height="11.3"/>
<rect x="47" y="111.4" class="st1" width="38.9" height="11.3"/>
<path class="st1" d="M149.8,188.5c-26.7,0-48.4-21.7-48.4-48.4s21.7-48.4,48.4-48.4s48.4,21.7,48.4,48.4S176.5,188.5,149.8,188.5z
	 M149.8,103.8c-20.1,0-36.4,16.3-36.4,36.4c0,20.1,16.3,36.4,36.4,36.4c20.1,0,36.4-16.3,36.4-36.4
	C186.2,120.1,169.8,103.8,149.8,103.8z"/>
<path class="st1" d="M168.2,145.3h-17.8c-3.3,0-6-2.7-6-6v-22.7c0-3.3,2.7-6,6-6s6,2.7,6,6v16.7h11.8c3.3,0,6,2.7,6,6
	S171.5,145.3,168.2,145.3z"/>
</svg>
