<svg id="图层_1" data-name="图层 1" xmlns="http://www.w3.org/2000/svg" xmlns:xlink="http://www.w3.org/1999/xlink" viewBox="0 0 153.98 175.8"><defs><style>.cls-1{fill:url(#未命名的渐变_13);}.cls-2{fill:none;}</style><linearGradient id="未命名的渐变_13" x1="971.99" y1="615.82" x2="971.99" y2="473.72" gradientUnits="userSpaceOnUse"><stop offset="0" stop-color="#fff"/><stop offset="0.54" stop-color="#fbc289"/><stop offset="1" stop-color="#f8902a"/></linearGradient></defs><title>临期客户</title><path class="cls-1" d="M999.41,536.49a37.38,37.38,0,1,0-54.84,0C925.79,546.37,908,561.06,908,583.75c0,32.59,31.42,32.07,64,32.07s64,.52,64-32.07C1036,561.06,1018.19,546.37,999.41,536.49Z" transform="translate(-883.01 -452.1)"/><path d="M989.1,467.49a52.33,52.33,0,0,0-89.39,37,51.18,51.18,0,0,0,21.91,42.3l3.55,2.53-4,1.86a71.83,71.83,0,0,0-36.59,39.14c-2.8,7.45-1.86,16.07,2.43,22l.07.06a22.91,22.91,0,0,0,19.57,10.29h29.58a6.06,6.06,0,0,0,0-12.11H907.68c-3.44,0-6.73-1.69-9.54-4.9l-.06-.05c-2.38-3-2.72-6.56-1-10.72a58.87,58.87,0,0,1,55.26-37.74h.19a52.37,52.37,0,0,0,52.3-52.29v0C1004.18,490.07,998.75,477.15,989.1,467.49ZM952,544.77a40,40,0,1,1,40-40A40,40,0,0,1,952,544.77Z" transform="translate(-883.01 -452.1)"/><rect class="cls-2" x="0.5" y="0.44" width="149.06" height="170"/><path d="M1000,627.9a37,37,0,1,1,37-37A37,37,0,0,1,1000,627.9Zm0-62a25,25,0,1,0,25,25A25,25,0,0,0,1000,565.9Z" transform="translate(-883.01 -452.1)"/><path d="M1011.34,601.55H991.13V580.77a6,6,0,0,1,12,0v8.78h8.21a6,6,0,0,1,0,12Z" transform="translate(-883.01 -452.1)"/></svg>