<svg id="图层_1" data-name="图层 1" xmlns="http://www.w3.org/2000/svg" xmlns:xlink="http://www.w3.org/1999/xlink" viewBox="0 0 153 170.6"><defs><style>.cls-1{fill:url(#未命名的渐变_13);}.cls-2{fill:none;}</style><linearGradient id="未命名的渐变_13" x1="972.48" y1="618.43" x2="972.48" y2="476.32" gradientUnits="userSpaceOnUse"><stop offset="0" stop-color="#fff"/><stop offset="0.54" stop-color="#fbc289"/><stop offset="1" stop-color="#f8902a"/></linearGradient></defs><title>本月新增客户</title><path class="cls-1" d="M999.9,539.1a37.38,37.38,0,1,0-54.83,0c-18.79,9.87-36.6,24.56-36.6,47.25,0,32.6,31.42,32.08,64,32.08s64,.52,64-32.08C1036.5,563.66,1018.68,549,999.9,539.1Z" transform="translate(-883.5 -454.7)"/><path d="M989.59,470.09a52.33,52.33,0,0,0-89.39,37,51.18,51.18,0,0,0,21.91,42.3l3.55,2.53-4,1.86a71.81,71.81,0,0,0-36.6,39.14c-2.79,7.45-1.86,16.08,2.43,22l.07.07a22.9,22.9,0,0,0,19.57,10.28h29.58a6.06,6.06,0,0,0,0-12.11H908.17c-3.43,0-6.73-1.68-9.54-4.89l-.06-.06c-2.38-3-2.72-6.56-1-10.72a58.89,58.89,0,0,1,55.26-37.74H953a52.37,52.37,0,0,0,52.3-52.29v0C1004.67,492.68,999.25,479.75,989.59,470.09Zm-37.1,77.28a40,40,0,1,1,40-40A40,40,0,0,1,952.49,547.37Z" transform="translate(-883.5 -454.7)"/><rect class="cls-2" x="0.5" y="0.44" width="149.06" height="170"/><path d="M1023.29,588.46h-18v-18a6,6,0,0,0-12,0v18h-18a6,6,0,0,0,0,12h18v18a6,6,0,0,0,12,0v-18h18a6,6,0,0,0,0-12Z" transform="translate(-883.5 -454.7)"/></svg>