<svg id="图层_1" data-name="图层 1" xmlns="http://www.w3.org/2000/svg" xmlns:xlink="http://www.w3.org/1999/xlink" viewBox="0 0 153 170.6"><defs><style>.cls-1{fill:url(#未命名的渐变_13);}.cls-2{fill:none;}</style><linearGradient id="未命名的渐变_13" x1="972.48" y1="618.43" x2="972.48" y2="476.32" gradientUnits="userSpaceOnUse"><stop offset="0" stop-color="#fff"/><stop offset="0.54" stop-color="#fbc289"/><stop offset="1" stop-color="#f8902a"/></linearGradient></defs><title>重点客户</title><path class="cls-1" d="M999.9,539.1a37.38,37.38,0,1,0-54.83,0c-18.79,9.87-36.6,24.56-36.6,47.25,0,32.6,31.42,32.08,64,32.08s64,.52,64-32.08C1036.5,563.66,1018.68,549,999.9,539.1Z" transform="translate(-883.5 -454.7)"/><path d="M989.59,470.09a52.33,52.33,0,0,0-89.39,37,51.18,51.18,0,0,0,21.91,42.3l3.55,2.53-4,1.86a71.81,71.81,0,0,0-36.6,39.14c-2.79,7.45-1.86,16.08,2.43,22l.07.07a22.9,22.9,0,0,0,19.57,10.28h29.58a6.06,6.06,0,0,0,0-12.11H908.17c-3.43,0-6.73-1.68-9.54-4.89l-.06-.06c-2.38-3-2.72-6.56-1-10.72a58.89,58.89,0,0,1,55.26-37.74H953a52.37,52.37,0,0,0,52.3-52.29v0C1004.67,492.68,999.25,479.75,989.59,470.09Zm-37.1,77.28a40,40,0,1,1,40-40A40,40,0,0,1,952.49,547.37Z" transform="translate(-883.5 -454.7)"/><rect class="cls-2" x="0.5" y="0.44" width="149.06" height="170"/><path d="M977.88,625.24a7.3,7.3,0,0,1-7.17-8.51l2.79-16.25L961.7,589a7.28,7.28,0,0,1,4-12.41L982,574.2l7.3-14.78a7.23,7.23,0,0,1,6.51-4.06h0a7.24,7.24,0,0,1,6.52,4.06l7.29,14.78,16.32,2.37a7.28,7.28,0,0,1,4,12.41l-11.81,11.5,2.79,16.25a7.27,7.27,0,0,1-10.55,7.67l-14.59-7.67-14.59,7.67A7.36,7.36,0,0,1,977.88,625.24Zm15.78-9.67h0Zm4.41,0h0Zm-2.21-11.46a7.27,7.27,0,0,1,3.39.84l8.3,4.37-1.58-9.26a7.26,7.26,0,0,1,2.09-6.44l6.72-6.55-9.29-1.35a7.31,7.31,0,0,1-5.48-4l-4.15-8.42-4.16,8.42a7.29,7.29,0,0,1-5.47,4l-9.3,1.35,6.73,6.56a7.27,7.27,0,0,1,2.09,6.44l-1.59,9.25,8.31-4.37A7.24,7.24,0,0,1,995.86,604.11ZM973.92,598v0Zm43.87,0h0Zm-7-21.61h0Zm-10.67-11.7h0Z" transform="translate(-883.5 -454.7)"/></svg>